<?xml version="1.0" encoding="utf-8"?>
<!-- Generator: Adobe Illustrator 19.2.1, SVG Export Plug-In . SVG Version: 6.00 Build 0)  -->
<svg version="1.1" id="Layer_1" xmlns="http://www.w3.org/2000/svg" xmlns:xlink="http://www.w3.org/1999/xlink" x="0px" y="0px"
	 viewBox="0 0 500 500" style="enable-background:new 0 0 500 500;" xml:space="preserve">
<style type="text/css">
	.st0{fill:#3D2875;}
	.st1{fill:url(#SVGID_1_);}
	.st2{fill:url(#SVGID_2_);}
	.st3{fill:#6C91EA;}
	.st4{fill:url(#SVGID_3_);}
	.st5{fill:#E9BFFF;}
	.st6{fill:#55D5C6;}
	.st7{fill:#73EBFF;}
	.st8{fill:url(#SVGID_4_);}
	.st9{fill:url(#SVGID_5_);}
	.st10{fill:url(#SVGID_6_);}
	.st11{fill:url(#SVGID_7_);}
	.st12{fill:url(#SVGID_8_);}
	.st13{fill:url(#SVGID_9_);}
	.st14{fill:url(#SVGID_10_);}
	.st15{fill:#A29AFB;}
	.st16{fill:#6B5BDF;}
	.st17{fill:url(#SVGID_11_);}
	.st18{fill:#4505B3;}
	.st19{fill:url(#SVGID_12_);}
	.st20{fill:url(#SVGID_13_);}
	.st21{fill:url(#SVGID_14_);}
	.st22{fill:url(#SVGID_15_);}
	.st23{fill:url(#SVGID_16_);}
	.st24{fill:url(#SVGID_17_);}
	.st25{fill:url(#SVGID_18_);}
	.st26{fill:url(#SVGID_19_);}
	.st27{fill:url(#SVGID_20_);}
	.st28{fill:url(#SVGID_21_);}
	.st29{fill:url(#SVGID_22_);}
	.st30{fill:url(#SVGID_23_);}
	.st31{fill:url(#SVGID_24_);}
	.st32{fill:url(#SVGID_25_);}
	.st33{fill:url(#SVGID_26_);}
	.st34{fill:url(#SVGID_27_);}
	.st35{fill:url(#SVGID_28_);}
	.st36{fill:url(#SVGID_29_);}
	.st37{fill:url(#SVGID_30_);}
	.st38{fill:url(#SVGID_31_);}
	.st39{fill:url(#SVGID_32_);}
	.st40{fill:url(#SVGID_33_);}
	.st41{fill:#0DB1C2;}
	.st42{fill:#007177;}
	.st43{fill:url(#SVGID_34_);}
	.st44{fill:url(#SVGID_35_);}
	.st45{fill:url(#SVGID_36_);}
	.st46{fill:url(#SVGID_37_);}
	.st47{fill:#2D2D4F;}
	.st48{fill:#46466C;}
	.st49{fill:#010400;}
	.st50{fill:#1C1C38;}
	.st51{fill:url(#SVGID_38_);}
	.st52{fill:#894258;}
	.st53{fill:url(#SVGID_39_);}
	.st54{fill:#331202;}
	.st55{fill:#AC5E74;}
	.st56{fill:url(#SVGID_40_);}
	.st57{fill:#BDCEFA;}
	.st58{fill:url(#SVGID_41_);}
	.st59{fill:url(#SVGID_42_);}
	.st60{fill:url(#SVGID_43_);}
	.st61{fill:url(#SVGID_44_);}
	.st62{fill:url(#SVGID_45_);}
	.st63{fill:url(#SVGID_46_);}
	.st64{fill:url(#SVGID_47_);}
	.st65{fill:#705FDF;}
	.st66{fill:#E5A89C;}
	.st67{fill:url(#SVGID_48_);}
	.st68{fill:#E58800;}
	.st69{fill:#FCC4B7;}
	.st70{fill:url(#SVGID_49_);}
	.st71{fill:#8737A8;}
	.st72{fill:#E28C66;}
	.st73{fill:url(#SVGID_50_);}
	.st74{fill:url(#SVGID_51_);}
	.st75{fill:#DD936F;}
	.st76{fill:url(#SVGID_52_);}
	.st77{fill:#943BBB;}
	.st78{fill:#F9AB83;}
	.st79{fill:url(#SVGID_53_);}
</style>
<g id="BACKGROUND">
	<rect class="st0" width="500" height="500"/>
</g>
<g id="OBJECTS">
	<g>
		<g>
			
				<linearGradient id="SVGID_1_" gradientUnits="userSpaceOnUse" x1="158.748" y1="452.6859" x2="182.5821" y2="262.7592" gradientTransform="matrix(1 0 0 -1 0 500)">
				<stop  offset="0" style="stop-color:#5861D6"/>
				<stop  offset="6.992441e-002" style="stop-color:#535ACE;stop-opacity:0.93"/>
				<stop  offset="0.484" style="stop-color:#3934A3;stop-opacity:0.5157"/>
				<stop  offset="0.8077" style="stop-color:#291C89;stop-opacity:0.1917"/>
				<stop  offset="0.9993" style="stop-color:#23137F;stop-opacity:0"/>
			</linearGradient>
			<path class="st1" d="M245.4,154.2L93.2,242.1c-4.9,2.8-8.9-0.2-8.9-6.7V125.6c0-6.5,4-14.2,8.9-17l152.2-87.9
				c4.9-2.8,8.9,0.2,8.9,6.7v109.8C254.3,143.8,250.3,151.4,245.4,154.2z"/>
			
				<linearGradient id="SVGID_2_" gradientUnits="userSpaceOnUse" x1="140.3939" y1="385.9554" x2="215.1582" y2="255.745" gradientTransform="matrix(1 0 0 -1 0 500)">
				<stop  offset="0" style="stop-color:#55D5C6"/>
				<stop  offset="0.1097" style="stop-color:#4FBFBE;stop-opacity:0.8903"/>
				<stop  offset="0.7272" style="stop-color:#304491;stop-opacity:0.2723"/>
				<stop  offset="0.9993" style="stop-color:#23137F;stop-opacity:0"/>
			</linearGradient>
			<path class="st2" d="M223,71l-18.2,47.5c-4.5,11.6-16.1,17.1-19.1,9.1l-6.7-17.8c-3.5-9.5-17.4-2.1-21.8,11.5l-14.8,46.2
				c-3.4,10.7-14,17.3-18.1,11.4c-7.3-10.7-25.3-2.2-34.9,16.4l-5.2,10.2v29.9c0,6.5,4,9.5,8.9,6.7l152.2-87.9
				c4.9-2.8,8.9-10.5,8.9-17V89.9l-19-26.1C232.6,60,225.7,64,223,71z"/>
			<polygon class="st3" points="254.3,119.6 84.3,217.8 84.3,215.3 254.3,117.2 			"/>
			<polygon class="st3" points="254.3,88.3 84.3,186.5 84.3,184 254.3,85.8 			"/>
			<polygon class="st3" points="254.3,57 84.3,155.2 84.3,152.7 254.3,54.5 			"/>
			<g>
				<polygon class="st3" points="81.7,159.9 73.5,164.6 73.5,155.1 81.7,150.3 				"/>
				<polygon class="st3" points="81.7,191.5 73.5,196.2 73.5,186.7 81.7,182 				"/>
				<polygon class="st3" points="81.7,223.1 73.5,227.9 73.5,218.3 81.7,213.6 				"/>
			</g>
		</g>
		
			<linearGradient id="SVGID_3_" gradientUnits="userSpaceOnUse" x1="362.2103" y1="656.7118" x2="95.0498" y2="212.1841" gradientTransform="matrix(1 0 0 -1 0 500)">
			<stop  offset="0" style="stop-color:#FFFFFF"/>
			<stop  offset="9.943394e-002" style="stop-color:#EEEEEE;stop-opacity:0.9006"/>
			<stop  offset="0.2962" style="stop-color:#C2C3C2;stop-opacity:0.7038"/>
			<stop  offset="0.5718" style="stop-color:#7B7D7B;stop-opacity:0.4282"/>
			<stop  offset="0.9123" style="stop-color:#1B1E1A;stop-opacity:8.763379e-002"/>
			<stop  offset="1" style="stop-color:#010400;stop-opacity:0"/>
		</linearGradient>
		<path class="st4" d="M260.3,162.3l-152.2,87.9c-4.9,2.8-8.9-0.2-8.9-6.7V133.7c0-6.5,4-14.2,8.9-17l152.2-87.9
			c4.9-2.8,8.9,0.2,8.9,6.7v109.8C269.2,151.8,265.2,159.4,260.3,162.3z"/>
	</g>
	<g>
		<path class="st5" d="M381.4,251.3l21.3,15.7c-13.7,6.2-33.5,5.5-45.8-1.6c-5.2-3-8.6-6.9-9.7-11L381.4,251.3z"/>
		<path class="st6" d="M381.4,251.3l4.2-19.8c7.7,0.5,14.8,2.6,20.2,5.7c13.4,7.7,13.4,20.5,0,28.2c-1,0.6-2,1.1-3.1,1.6
			L381.4,251.3z"/>
		<path class="st7" d="M381.4,251.3l-34.2,3.1c-1.7-6.3,1.9-12.7,9.7-17.2c7.5-4.3,18.1-6.5,28.7-5.7L381.4,251.3z"/>
		
			<linearGradient id="SVGID_4_" gradientUnits="userSpaceOnUse" x1="407.54" y1="207.4826" x2="336.2799" y2="218.9904" gradientTransform="matrix(1 0 0 -1 0 500)">
			<stop  offset="0.31" style="stop-color:#AC36A8"/>
			<stop  offset="0.4773" style="stop-color:#9B36A8"/>
			<stop  offset="0.8064" style="stop-color:#7037A8"/>
			<stop  offset="0.9996" style="stop-color:#5337A8"/>
		</linearGradient>
		<path class="st8" d="M357,265.4c-5.2-3-8.6-6.9-9.7-11v44.7c1.1,4.2,4.5,8,9.7,11c12.3,7.1,32.1,7.8,45.8,1.6V267
			C389.1,273.2,369.3,272.5,357,265.4z"/>
		
			<linearGradient id="SVGID_5_" gradientUnits="userSpaceOnUse" x1="377.0185" y1="298.8141" x2="328.9773" y2="218.8785" gradientTransform="matrix(1 0 0 -1 0 500)">
			<stop  offset="0" style="stop-color:#FFFFFF"/>
			<stop  offset="9.943394e-002" style="stop-color:#EEEEEE;stop-opacity:0.9006"/>
			<stop  offset="0.2962" style="stop-color:#C2C3C2;stop-opacity:0.7038"/>
			<stop  offset="0.5718" style="stop-color:#7B7D7B;stop-opacity:0.4282"/>
			<stop  offset="0.9123" style="stop-color:#1B1E1A;stop-opacity:8.763379e-002"/>
			<stop  offset="1" style="stop-color:#010400;stop-opacity:0"/>
		</linearGradient>
		<path class="st9" d="M346.9,251v0.6l0,0C346.9,251.4,346.9,251.2,346.9,251z"/>
		
			<linearGradient id="SVGID_6_" gradientUnits="userSpaceOnUse" x1="444.4369" y1="275.121" x2="366.2129" y2="144.9643" gradientTransform="matrix(1 0 0 -1 0 500)">
			<stop  offset="0" style="stop-color:#FFFFFF"/>
			<stop  offset="9.943394e-002" style="stop-color:#EEEEEE;stop-opacity:0.9006"/>
			<stop  offset="0.2962" style="stop-color:#C2C3C2;stop-opacity:0.7038"/>
			<stop  offset="0.5718" style="stop-color:#7B7D7B;stop-opacity:0.4282"/>
			<stop  offset="0.9123" style="stop-color:#1B1E1A;stop-opacity:8.763379e-002"/>
			<stop  offset="1" style="stop-color:#010400;stop-opacity:0"/>
		</linearGradient>
		<path class="st10" d="M405.9,265.4c-1,0.6-2,1.1-3.1,1.6v44.7c1.1-0.5,2.2-1,3.1-1.6c6.8-3.9,10.1-9.1,10.1-14.2v-44.3
			c0-0.1,0-0.1,0-0.2C415.9,256.5,412.6,261.6,405.9,265.4z"/>
		
			<linearGradient id="SVGID_7_" gradientUnits="userSpaceOnUse" x1="420.1164" y1="228.3784" x2="394.747" y2="200.4069" gradientTransform="matrix(1 0 0 -1 0 500)">
			<stop  offset="0" style="stop-color:#0DB1C2"/>
			<stop  offset="0.2803" style="stop-color:#0AA3B1"/>
			<stop  offset="0.8322" style="stop-color:#037D86"/>
			<stop  offset="0.9996" style="stop-color:#007177"/>
		</linearGradient>
		<path class="st11" d="M405.9,265.4c-1,0.6-2,1.1-3.1,1.6v44.7c1.1-0.5,2.2-1,3.1-1.6c6.8-3.9,10.1-9.1,10.1-14.2v-44.3
			c0-0.1,0-0.1,0-0.2C415.9,256.5,412.6,261.6,405.9,265.4z"/>
		
			<linearGradient id="SVGID_8_" gradientUnits="userSpaceOnUse" x1="355.3665" y1="260.8045" x2="333.5813" y2="224.5563" gradientTransform="matrix(1 0 0 -1 0 500)">
			<stop  offset="0" style="stop-color:#FFFFFF"/>
			<stop  offset="9.943394e-002" style="stop-color:#EEEEEE;stop-opacity:0.9006"/>
			<stop  offset="0.2962" style="stop-color:#C2C3C2;stop-opacity:0.7038"/>
			<stop  offset="0.5718" style="stop-color:#7B7D7B;stop-opacity:0.4282"/>
			<stop  offset="0.9123" style="stop-color:#1B1E1A;stop-opacity:8.763379e-002"/>
			<stop  offset="1" style="stop-color:#010400;stop-opacity:0"/>
		</linearGradient>
		<path class="st12" d="M346.9,251.6c0,0.9,0.2,1.8,0.4,2.7L346.9,251.6z"/>
		
			<linearGradient id="SVGID_9_" gradientUnits="userSpaceOnUse" x1="425.9198" y1="355.7982" x2="317.3287" y2="175.1135" gradientTransform="matrix(1 0 0 -1 0 500)">
			<stop  offset="0" style="stop-color:#FFFFFF"/>
			<stop  offset="9.943394e-002" style="stop-color:#EEEEEE;stop-opacity:0.9006"/>
			<stop  offset="0.2962" style="stop-color:#C2C3C2;stop-opacity:0.7038"/>
			<stop  offset="0.5718" style="stop-color:#7B7D7B;stop-opacity:0.4282"/>
			<stop  offset="0.9123" style="stop-color:#1B1E1A;stop-opacity:8.763379e-002"/>
			<stop  offset="1" style="stop-color:#010400;stop-opacity:0"/>
		</linearGradient>
		<path class="st13" d="M346.9,251.6L346.9,251.6v43.9c0,1.2,0.1,2.4,0.4,3.6v-44.7C347,253.5,346.9,252.5,346.9,251.6z"/>
		
			<linearGradient id="SVGID_10_" gradientUnits="userSpaceOnUse" x1="374.9983" y1="271.0699" x2="325.7578" y2="189.1387" gradientTransform="matrix(1 0 0 -1 0 500)">
			<stop  offset="0.4337" style="stop-color:#0084E9"/>
			<stop  offset="0.5779" style="stop-color:#0973E4"/>
			<stop  offset="0.8616" style="stop-color:#2048D8"/>
			<stop  offset="0.9996" style="stop-color:#2C30D1"/>
		</linearGradient>
		<path class="st14" d="M346.9,251.6L346.9,251.6v43.9c0,1.2,0.1,2.4,0.4,3.6v-44.7C347,253.5,346.9,252.5,346.9,251.6z"/>
	</g>
	<g>
		<g>
			<g>
				<g>
					<path class="st15" d="M324.4,272.2L200.1,344c-9.1,5.2-25,4.6-35.5-1.5l-57.2-32.7c-10.5-6-11.6-15.3-2.5-20.5l124.3-71.8
						c9.1-5.2,25-4.6,35.5,1.5l57.2,32.7C332.4,257.8,333.5,267,324.4,272.2z"/>
					<g>
						<path class="st16" d="M330.4,287.3V265l0,0l0,0c-0.6,2.7-2.5,5.3-5.9,7.3L200.1,344c-4.4,2.5-10.3,3.6-16.5,3.5V373
							c6.2,0.2,12.1-1,16.5-3.5l124.3-71.8C329.2,295,331.1,291.2,330.4,287.3z"/>
						
							<linearGradient id="SVGID_11_" gradientUnits="userSpaceOnUse" x1="141.1699" y1="111.9223" x2="141.1699" y2="206.5098" gradientTransform="matrix(1 0 0 -1 0 500)">
							<stop  offset="7.151770e-002" style="stop-color:#55D1FF"/>
							<stop  offset="0.1638" style="stop-color:#4FC3EE;stop-opacity:0.9006"/>
							<stop  offset="0.3466" style="stop-color:#41A0C2;stop-opacity:0.7038"/>
							<stop  offset="0.6024" style="stop-color:#29677B;stop-opacity:0.4282"/>
							<stop  offset="0.9186" style="stop-color:#0A191A;stop-opacity:8.763379e-002"/>
							<stop  offset="1" style="stop-color:#010400;stop-opacity:0"/>
						</linearGradient>
						<path class="st17" d="M164.6,342.5l-57.2-32.7c-5-2.9-7.8-6.5-8.5-10v22.3c-0.9,4.5,2,9.5,8.5,13.2l57.2,32.7
							c5.4,3.1,12.3,4.8,19,5v-25.5C177,347.3,170.1,345.7,164.6,342.5z"/>
						<path class="st18" d="M164.6,342.5l-57.2-32.7c-5-2.9-7.8-6.5-8.5-10v22.3c-0.9,4.5,2,9.5,8.5,13.2l57.2,32.7
							c5.4,3.1,12.3,4.8,19,5v-25.5C177,347.3,170.1,345.7,164.6,342.5z"/>
					</g>
				</g>
				<g>
					<g>
						<polygon class="st15" points="223.6,330.5 298,287.5 396,350.2 324.7,391.4 						"/>
						
							<linearGradient id="SVGID_12_" gradientUnits="userSpaceOnUse" x1="322.037" y1="121.0845" x2="205.5943" y2="163.2738" gradientTransform="matrix(1 0 0 -1 0 500)">
							<stop  offset="0" style="stop-color:#6B5BDF"/>
							<stop  offset="6.172969e-002" style="stop-color:#6854DB"/>
							<stop  offset="0.4794" style="stop-color:#5529C6"/>
							<stop  offset="0.806" style="stop-color:#490FB8"/>
							<stop  offset="0.9993" style="stop-color:#4505B3"/>
						</linearGradient>
						<polygon class="st19" points="223.6,330.5 223.6,356 324.7,391.4 						"/>
					</g>
					
						<linearGradient id="SVGID_13_" gradientUnits="userSpaceOnUse" x1="661.2285" y1="-128.0037" x2="661.2285" y2="-255.0959" gradientTransform="matrix(-0.866 0.5 1 0.5774 1103.5828 134.4832)">
						<stop  offset="0" style="stop-color:#55D5C6"/>
						<stop  offset="0.2244" style="stop-color:#479EB2;stop-opacity:0.7754"/>
						<stop  offset="0.4906" style="stop-color:#37639C;stop-opacity:0.509"/>
						<stop  offset="0.7181" style="stop-color:#2C378C;stop-opacity:0.2814"/>
						<stop  offset="0.8948" style="stop-color:#261D83;stop-opacity:0.1046"/>
						<stop  offset="0.9993" style="stop-color:#23137F;stop-opacity:0"/>
					</linearGradient>
					<polygon class="st20" points="254.5,326.6 284.1,311.9 420,379.9 390.5,394.6 					"/>
					<g>
						<g>
							<path class="st18" d="M284.1,358.3c1.2-0.7,1.2-1.7,0-2.4c-1.2-0.7-3-0.7-4.2,0s-1.2,1.7,0,2.4S282.9,359,284.1,358.3z
								 M274.5,352.8c1.2-0.7,1.2-1.7,0-2.4c-1.2-0.7-3-0.7-4.2,0s-1.2,1.7,0,2.4C271.5,353.4,273.3,353.4,274.5,352.8z
								 M264.9,347.2c1.2-0.7,1.2-1.7,0-2.4c-1.2-0.7-3-0.7-4.2,0s-1.2,1.7,0,2.4S263.7,347.9,264.9,347.2z M255.3,341.7
								c1.2-0.7,1.2-1.7,0-2.4c-1.2-0.7-3-0.7-4.2,0s-1.2,1.7,0,2.4S254.1,342.4,255.3,341.7z M322.5,380.5c1.2-0.7,1.2-1.7,0-2.4
								c-1.2-0.7-3-0.7-4.2,0s-1.2,1.7,0,2.4C319.4,381.1,321.3,381.1,322.5,380.5z M312.9,374.9c1.2-0.7,1.2-1.7,0-2.4
								c-1.2-0.7-3-0.7-4.2,0s-1.2,1.7,0,2.4C309.8,375.6,311.7,375.6,312.9,374.9z M303.3,369.4c1.2-0.7,1.2-1.7,0-2.4
								c-1.2-0.7-3-0.7-4.2,0s-1.2,1.7,0,2.4C300.2,370.1,302.1,370.1,303.3,369.4z M293.7,363.8c1.2-0.7,1.2-1.7,0-2.4
								c-1.2-0.7-3-0.7-4.2,0s-1.2,1.7,0,2.4C290.7,364.5,292.5,364.5,293.7,363.8z"/>
							
								<linearGradient id="SVGID_14_" gradientUnits="userSpaceOnUse" x1="292.2839" y1="165.2126" x2="275.4893" y2="132.8409" gradientTransform="matrix(1 0 0 -1 0 500)">
								<stop  offset="0" style="stop-color:#705FDF"/>
								<stop  offset="0.187" style="stop-color:#6E5ADC"/>
								<stop  offset="0.4142" style="stop-color:#664BD5"/>
								<stop  offset="0.6622" style="stop-color:#5B32C9"/>
								<stop  offset="0.9234" style="stop-color:#4A10B9"/>
								<stop  offset="0.9993" style="stop-color:#4505B3"/>
							</linearGradient>
							<path class="st21" d="M321.2,348.3L254,309.5c-0.5-0.3-1.1-0.3-1.6,0s-0.8,0.8-0.8,1.4v30.7c0,0.1,0,0.2,0,0.3
								c0.9,0.3,2.1,0.3,3.1,0c0-0.1,0-0.2,0-0.3v-28l16,9.3v29.6c0,0.2,0,0.4,0.1,0.6c0.9,0.3,2,0.3,3,0c0.1-0.2,0.1-0.4,0.1-0.6
								v-27.8l25.6,14.8v29.4c0,0.3,0.1,0.6,0.2,0.8c0.9,0.3,1.9,0.3,2.7,0c0.1-0.2,0.2-0.5,0.2-0.8v-27.5l16,9.3v29.8
								c0,0.1,0,0.2,0,0.3c0.9,0.3,2.2,0.3,3.1,0c0-0.1,0-0.2,0-0.3v-30.7C322,349.1,321.7,348.6,321.2,348.3z"/>
						</g>
						<g>
							<path class="st18" d="M343.5,323.9c1.2-0.7,1.2-1.7,0-2.4c-1.2-0.7-3-0.7-4.2,0s-1.2,1.7,0,2.4
								C340.5,324.5,342.3,324.5,343.5,323.9z M333.9,318.3c1.2-0.7,1.2-1.7,0-2.4c-1.2-0.7-3-0.7-4.2,0s-1.2,1.7,0,2.4
								C330.9,319,332.7,319,333.9,318.3z M324.3,312.8c1.2-0.7,1.2-1.7,0-2.4c-1.2-0.7-3-0.7-4.2,0s-1.2,1.7,0,2.4
								C321.3,313.5,323.2,313.5,324.3,312.8z M314.7,307.3c1.2-0.7,1.2-1.7,0-2.4c-1.2-0.7-3-0.7-4.2,0s-1.2,1.7,0,2.4
								C311.7,307.9,313.6,307.9,314.7,307.3z M381.9,346c1.2-0.7,1.2-1.7,0-2.4c-1.2-0.7-3-0.7-4.2,0s-1.2,1.7,0,2.4
								S380.7,346.7,381.9,346z M372.3,340.5c1.2-0.7,1.2-1.7,0-2.4c-1.2-0.7-3-0.7-4.2,0s-1.2,1.7,0,2.4
								C369.3,341.2,371.1,341.2,372.3,340.5z M362.7,334.9c1.2-0.7,1.2-1.7,0-2.4c-1.2-0.7-3-0.7-4.2,0s-1.2,1.7,0,2.4
								C359.7,335.6,361.5,335.6,362.7,334.9z M353.1,329.4c1.2-0.7,1.2-1.7,0-2.4c-1.2-0.7-3-0.7-4.2,0s-1.2,1.7,0,2.4
								C350.1,330.1,351.9,330.1,353.1,329.4z"/>
							
								<linearGradient id="SVGID_15_" gradientUnits="userSpaceOnUse" x1="349.3513" y1="204.8667" x2="342.0064" y2="168.8698" gradientTransform="matrix(1 0 0 -1 0 500)">
								<stop  offset="0" style="stop-color:#705FDF"/>
								<stop  offset="0.239" style="stop-color:#6E5CDD"/>
								<stop  offset="0.4419" style="stop-color:#6951D8"/>
								<stop  offset="0.6316" style="stop-color:#6140D0"/>
								<stop  offset="0.8133" style="stop-color:#5527C4"/>
								<stop  offset="0.9878" style="stop-color:#4607B4"/>
								<stop  offset="0.9993" style="stop-color:#4505B3"/>
							</linearGradient>
							<path class="st22" d="M380.6,313.9l-67.2-38.8c-0.5-0.3-1.1-0.3-1.6,0s-0.8,0.8-0.8,1.4v30.7c0,0.1,0,0.2,0,0.3
								c0.9,0.3,2.1,0.3,3.1,0c0-0.1,0-0.2,0-0.3v-28l16,9.3V318c0,0.2,0,0.4,0.1,0.6c0.9,0.3,2,0.3,3,0c0.1-0.2,0.1-0.4,0.1-0.6
								v-27.8l25.6,14.8v29.4c0,0.3,0.1,0.6,0.2,0.8c0.9,0.3,1.9,0.3,2.7,0c0.1-0.2,0.2-0.5,0.2-0.8v-27.5l16,9.3V346
								c0,0.1,0,0.2,0,0.3c0.9,0.3,2.2,0.3,3.1,0c0-0.1,0-0.2,0-0.3v-30.7C381.4,314.7,381.1,314.2,380.6,313.9z"/>
						</g>
					</g>
				</g>
			</g>
			<g>
				<g>
					<g>
						<path class="st5" d="M296.6,154.4l-28.9,16.7c-2.1,1.2-5.8,1.1-8.3-0.3l-27.7-16c-2.4-1.4-2.7-3.5-0.6-4.8l28.9-16.7
							c2.1-1.2,5.8-1.1,8.3,0.3l27.7,16C298.4,151,298.7,153.2,296.6,154.4z"/>
						<g>
							
								<linearGradient id="SVGID_16_" gradientUnits="userSpaceOnUse" x1="312.4934" y1="322.2618" x2="246.3193" y2="242.853" gradientTransform="matrix(1 0 0 -1 0 500)">
								<stop  offset="4.877910e-002" style="stop-color:#E185BB"/>
								<stop  offset="0.9989" style="stop-color:#AC36A8"/>
							</linearGradient>
							<path class="st23" d="M298,258.2V152.7l0,0l0,0c-0.1,0.6-0.6,1.2-1.4,1.7l-28.9,16.7c-1,0.6-2.4,0.8-3.8,0.8v106.2
								c1.4,0,2.8-0.2,3.8-0.8l28.9-16.7C297.7,260,298.1,259.1,298,258.2z"/>
							
								<linearGradient id="SVGID_17_" gradientUnits="userSpaceOnUse" x1="246.7333" y1="195.9463" x2="246.7333" y2="358.4688" gradientTransform="matrix(1 0 0 -1 0 500)">
								<stop  offset="7.151770e-002" style="stop-color:#55D1FF"/>
								<stop  offset="0.1638" style="stop-color:#4FC3EE;stop-opacity:0.9006"/>
								<stop  offset="0.3466" style="stop-color:#41A0C2;stop-opacity:0.7038"/>
								<stop  offset="0.6024" style="stop-color:#29677B;stop-opacity:0.4282"/>
								<stop  offset="0.9186" style="stop-color:#0A191A;stop-opacity:8.763379e-002"/>
								<stop  offset="1" style="stop-color:#010400;stop-opacity:0"/>
							</linearGradient>
							<path class="st24" d="M259.4,170.7l-27.7-16c-1.2-0.7-1.8-1.5-2-2.3v105.5c-0.2,1,0.5,2.2,2,3.1l27.7,16
								c1.3,0.7,2.9,1.1,4.4,1.2V171.9C262.3,171.8,260.7,171.5,259.4,170.7z"/>
							
								<linearGradient id="SVGID_18_" gradientUnits="userSpaceOnUse" x1="288.299" y1="328.3528" x2="236.0215" y2="273.4283" gradientTransform="matrix(1 0 0 -1 0 500)">
								<stop  offset="0.31" style="stop-color:#AC36A8"/>
								<stop  offset="0.4773" style="stop-color:#9B36A8"/>
								<stop  offset="0.8064" style="stop-color:#7037A8"/>
								<stop  offset="0.9996" style="stop-color:#5337A8"/>
							</linearGradient>
							<path class="st25" d="M259.4,170.7l-27.7-16c-1.2-0.7-1.8-1.5-2-2.3v105.5c-0.2,1,0.5,2.2,2,3.1l27.7,16
								c1.3,0.7,2.9,1.1,4.4,1.2V171.9C262.3,171.8,260.7,171.5,259.4,170.7z"/>
						</g>
					</g>
					<g>
						<path class="st6" d="M251,217.3L222.1,234c-2.1,1.2-5.8,1.1-8.3-0.3l-27.7-16c-2.4-1.4-2.7-3.5-0.6-4.8l28.9-16.7
							c2.1-1.2,5.8-1.1,8.3,0.3l27.7,16C252.9,213.9,253.1,216,251,217.3z"/>
						<g>
							
								<linearGradient id="SVGID_19_" gradientUnits="userSpaceOnUse" x1="255.7551" y1="261.3099" x2="209.0767" y2="212.2377" gradientTransform="matrix(1 0 0 -1 0 500)">
								<stop  offset="0" style="stop-color:#0DB1C2"/>
								<stop  offset="0.2803" style="stop-color:#0AA3B1"/>
								<stop  offset="0.8322" style="stop-color:#037D86"/>
								<stop  offset="0.9996" style="stop-color:#007177"/>
							</linearGradient>
							<path class="st26" d="M252.4,284.4v-68.9l0,0l0,0c-0.1,0.6-0.6,1.2-1.4,1.7l-28.9,16.7c-1,0.6-2.4,0.8-3.8,0.8v69.6
								c1.4,0,2.8-0.2,3.8-0.8l28.9-16.7C252.1,286.2,252.6,285.3,252.4,284.4z"/>
							
								<linearGradient id="SVGID_20_" gradientUnits="userSpaceOnUse" x1="201.2333" y1="177.2811" x2="201.2333" y2="292.4379" gradientTransform="matrix(1 0 0 -1 0 500)">
								<stop  offset="7.151770e-002" style="stop-color:#55D1FF"/>
								<stop  offset="0.1638" style="stop-color:#4FC3EE;stop-opacity:0.9006"/>
								<stop  offset="0.3466" style="stop-color:#41A0C2;stop-opacity:0.7038"/>
								<stop  offset="0.6024" style="stop-color:#29677B;stop-opacity:0.4282"/>
								<stop  offset="0.9186" style="stop-color:#0A191A;stop-opacity:8.763379e-002"/>
								<stop  offset="1" style="stop-color:#010400;stop-opacity:0"/>
							</linearGradient>
							<path class="st27" d="M213.9,233.6l-27.7-16c-1.2-0.7-1.8-1.5-2-2.3v68.9c-0.2,1,0.5,2.2,2,3.1l27.7,16
								c1.3,0.7,2.9,1.1,4.4,1.2v-69.6C216.8,234.7,215.2,234.3,213.9,233.6z"/>
							
								<linearGradient id="SVGID_21_" gradientUnits="userSpaceOnUse" x1="244.0216" y1="271.2066" x2="191.3585" y2="232.9061" gradientTransform="matrix(1 0 0 -1 0 500)">
								<stop  offset="0.4223" style="stop-color:#0DB1C2"/>
								<stop  offset="0.5843" style="stop-color:#0AA3B1"/>
								<stop  offset="0.9032" style="stop-color:#037D86"/>
								<stop  offset="1" style="stop-color:#007177"/>
							</linearGradient>
							<path class="st28" d="M213.9,233.6l-27.7-16c-1.2-0.7-1.8-1.5-2-2.3v68.9c-0.2,1,0.5,2.2,2,3.1l27.7,16
								c1.3,0.7,2.9,1.1,4.4,1.2v-69.6C216.8,234.7,215.2,234.3,213.9,233.6z"/>
						</g>
					</g>
					<g>
						<path class="st7" d="M206.5,269.4l-28.9,16.7c-2.1,1.2-5.8,1.1-8.3-0.3l-27.7-16c-2.4-1.4-2.7-3.5-0.6-4.8l28.9-16.7
							c2.1-1.2,5.8-1.1,8.3,0.3l27.7,16C208.3,266.1,208.6,268.2,206.5,269.4z"/>
						<g>
							
								<linearGradient id="SVGID_22_" gradientUnits="userSpaceOnUse" x1="214.18" y1="229.5328" x2="175.1589" y2="181.732" gradientTransform="matrix(1 0 0 -1 0 500)">
								<stop  offset="0" style="stop-color:#7DE7E8"/>
								<stop  offset="0.9896" style="stop-color:#0084E9"/>
							</linearGradient>
							<path class="st29" d="M207.9,310.1v-42.4l0,0l0,0c-0.1,0.6-0.6,1.2-1.4,1.7l-28.9,16.7c-1,0.6-2.4,0.8-3.8,0.8V330
								c1.4,0,2.8-0.2,3.8-0.8l28.9-16.7C207.6,311.9,208,311.1,207.9,310.1z"/>
							
								<linearGradient id="SVGID_23_" gradientUnits="userSpaceOnUse" x1="156.6333" y1="157.0154" x2="156.6333" y2="237.9774" gradientTransform="matrix(1 0 0 -1 0 500)">
								<stop  offset="0" style="stop-color:#FFE0AD"/>
								<stop  offset="0.4333" style="stop-color:#FFC291"/>
								<stop  offset="0.6309" style="stop-color:#FFB188"/>
								<stop  offset="0.9996" style="stop-color:#FF8871"/>
							</linearGradient>
							<path class="st30" d="M169.3,285.8l-27.7-16c-1.2-0.7-1.8-1.5-2-2.3v42.4c-0.2,1,0.5,2.2,2,3.1l27.7,16
								c1.3,0.7,2.9,1.1,4.4,1.2v-43.1C172.2,286.9,170.6,286.5,169.3,285.8z"/>
							
								<linearGradient id="SVGID_24_" gradientUnits="userSpaceOnUse" x1="197.7982" y1="229.3207" x2="134.389" y2="185.9098" gradientTransform="matrix(1 0 0 -1 0 500)">
								<stop  offset="0.4337" style="stop-color:#0084E9"/>
								<stop  offset="0.5779" style="stop-color:#0973E4"/>
								<stop  offset="0.8616" style="stop-color:#2048D8"/>
								<stop  offset="0.9996" style="stop-color:#2C30D1"/>
							</linearGradient>
							<path class="st31" d="M169.3,285.8l-27.7-16c-1.2-0.7-1.8-1.5-2-2.3v42.4c-0.2,1,0.5,2.2,2,3.1l27.7,16
								c1.3,0.7,2.9,1.1,4.4,1.2v-43.1C172.2,286.9,170.6,286.5,169.3,285.8z"/>
						</g>
					</g>
				</g>
				<g>
					<path class="st15" d="M312.6,64.3l-0.4-28.1l-21.1,26.7l6.7,0.4l-24.3,64.3l-15.8-36.4l-37.8,111l-21-29.2l-3.8,10.6
						c-0.1,0.2-7.3,20.4-14.5,40.5c-15,42.3-14.4,42.5-14.9,44.6c0,0,8.9-4.1,8.9-4c1-3.6,14.4-41.5,24.8-70.3l21.4,29.5L257,117.6
						l15.3,35.2l33.6-89L312.6,64.3z"/>
					<g>
						
							<linearGradient id="SVGID_25_" gradientUnits="userSpaceOnUse" x1="200.1679" y1="338.7978" x2="161.4975" y2="235.6764" gradientTransform="matrix(1 0 0 -1 0 500)">
							<stop  offset="0" style="stop-color:#A29AFB"/>
							<stop  offset="0.9996" style="stop-color:#4505B3"/>
						</linearGradient>
						<path class="st32" d="M195.1,183.6l3.8-10.5l-7.5-4.2l-3.8,10.6c-0.1,0.2-7.3,20.4-14.5,40.5c-15,42.3-14.4,42.5-14.9,44.6
							l7.5,4.2c0.5-2.1-0.1-2.2,14.9-44.6C187.7,204,195,183.8,195.1,183.6z"/>
						
							<linearGradient id="SVGID_26_" gradientUnits="userSpaceOnUse" x1="297.3122" y1="470.5004" x2="266.3758" y2="384.5662" gradientTransform="matrix(1 0 0 -1 0 500)">
							<stop  offset="0" style="stop-color:#A29AFB"/>
							<stop  offset="0.9996" style="stop-color:#4505B3"/>
						</linearGradient>
						<polygon class="st33" points="297.9,63.3 291.1,62.8 312.2,36.2 304.7,31.9 283.6,58.6 289.3,61.8 268.7,116.4 257.8,91.2 
							273.6,127.6 						"/>
						
							<linearGradient id="SVGID_27_" gradientUnits="userSpaceOnUse" x1="247.0376" y1="417.9651" x2="206.6484" y2="304.5316" gradientTransform="matrix(1 0 0 -1 0 500)">
							<stop  offset="0" style="stop-color:#A29AFB"/>
							<stop  offset="0.9996" style="stop-color:#4505B3"/>
						</linearGradient>
						<polygon class="st34" points="257.8,91.2 250.3,87 213.9,193.8 198.9,173 220,202.2 						"/>
						
							<linearGradient id="SVGID_28_" gradientUnits="userSpaceOnUse" x1="219.9236" y1="275.2856" x2="198.062" y2="303.4941" gradientTransform="matrix(1 0 0 -1 0 500)">
							<stop  offset="0" style="stop-color:#A29AFB"/>
							<stop  offset="0.9996" style="stop-color:#4505B3"/>
						</linearGradient>
						<path class="st35" d="M197.9,198.6l15.4,21.2l0,0l7.5,4.3l-21.4-29.5C198.5,196.9,197.4,199.7,197.9,198.6z"/>
						
							<linearGradient id="SVGID_29_" gradientUnits="userSpaceOnUse" x1="267.3288" y1="347.3494" x2="258.3873" y2="378.6445" gradientTransform="matrix(1 0 0 -1 0 500)">
							<stop  offset="0" style="stop-color:#A29AFB"/>
							<stop  offset="0.9996" style="stop-color:#4505B3"/>
						</linearGradient>
						<polygon class="st36" points="254.5,125 264.7,148.6 272.3,152.8 257,117.6 						"/>
					</g>
				</g>
			</g>
		</g>
		
			<linearGradient id="SVGID_30_" gradientUnits="userSpaceOnUse" x1="240.0988" y1="331.6723" x2="269.2321" y2="350.7209" gradientTransform="matrix(1 0 0 -1 0 500)">
			<stop  offset="0" style="stop-color:#AC36A8;stop-opacity:0"/>
			<stop  offset="0.2425" style="stop-color:#9B36A8;stop-opacity:0.2425"/>
			<stop  offset="0.7195" style="stop-color:#7037A8;stop-opacity:0.7197"/>
			<stop  offset="0.9996" style="stop-color:#5337A8"/>
		</linearGradient>
		<polygon class="st37" points="264.7,148.6 242.7,161.1 250.4,165.5 272.3,152.8 		"/>
		
			<linearGradient id="SVGID_31_" gradientUnits="userSpaceOnUse" x1="201.1548" y1="267.9512" x2="218.2726" y2="279.1436" gradientTransform="matrix(1 0 0 -1 0 500)">
			<stop  offset="0" style="stop-color:#AC36A8;stop-opacity:0"/>
			<stop  offset="0.2425" style="stop-color:#9B36A8;stop-opacity:0.2425"/>
			<stop  offset="0.7195" style="stop-color:#7037A8;stop-opacity:0.7197"/>
			<stop  offset="0.9996" style="stop-color:#5337A8"/>
		</linearGradient>
		<polygon class="st38" points="213.2,219.7 202,226.7 209.2,230.9 220.8,224 		"/>
		
			<linearGradient id="SVGID_32_" gradientUnits="userSpaceOnUse" x1="144.5306" y1="222.3296" x2="163.1171" y2="234.4823" gradientTransform="matrix(1 0 0 -1 0 500)">
			<stop  offset="0" style="stop-color:#AC36A8;stop-opacity:0"/>
			<stop  offset="0.2425" style="stop-color:#9B36A8;stop-opacity:0.2425"/>
			<stop  offset="0.7195" style="stop-color:#7037A8;stop-opacity:0.7197"/>
			<stop  offset="0.9996" style="stop-color:#5337A8"/>
		</linearGradient>
		<polygon class="st39" points="158.2,264.5 145.6,272.1 153.2,276.4 165.7,268.7 		"/>
	</g>
	<g>
		<path class="st16" d="M147,358.3c0,15.2-10.7,33.7-23.9,41.3c-13.2,7.6-23.9,1.4-23.9-13.8c0-15.2,10.7-33.7,23.9-41.3
			C136.3,336.9,147,343.1,147,358.3z"/>
		<path class="st15" d="M123.2,346.1c13-7.5,23.5-1.6,23.9,13c0-0.3,0-0.5,0-0.8c0-15.2-10.7-21.4-23.9-13.8s-23.9,26.1-23.9,41.3
			c0,0.3,0,0.5,0,0.8C99.7,371.6,110.2,353.6,123.2,346.1z"/>
		<g>
			
				<linearGradient id="SVGID_33_" gradientUnits="userSpaceOnUse" x1="116.4396" y1="162.0759" x2="99.5742" y2="99.3209" gradientTransform="matrix(1 0 0 -1 0 500)">
				<stop  offset="0" style="stop-color:#A29AFB"/>
				<stop  offset="0.9996" style="stop-color:#4505B3"/>
			</linearGradient>
			<path class="st40" d="M99.3,385.9c0-15.2,10.7-33.7,23.9-41.3c6.6-3.8,12.5-4.2,16.8-1.7l-16.5-9.7c-4.3-2.6-10.3-2.2-17,1.6
				c-13.2,7.6-23.9,26.1-23.9,41.3c0,7.6,2.7,13,7.1,15.5l16.5,9.8C101.9,398.7,99.3,393.4,99.3,385.9z"/>
		</g>
		<path class="st6" d="M106.3,381.8c0-10.8,7.6-23.8,16.9-29.2c0.3-0.2,0.7-0.4,1-0.5c0-1,0-1.8,0-2.9c-0.3,0.2-0.7,0.3-1,0.5
			c-10.7,6.2-19.4,21.2-19.4,33.5c0,11.5,7.5,16.6,17.1,12.3c0-1,0-2,0.1-2.9C112.7,396.2,106.3,391.7,106.3,381.8z"/>
		<path class="st41" d="M142.3,357.6c-0.8,0.5-1.7,1-2.5,1.6c0.2,1,0.3,2,0.3,3.1c0,10.8-7.6,23.8-16.9,29.2
			c-0.7,0.4-1.5,0.8-2.2,1.1c0,1,0,2-0.1,2.9c0.7-0.3,1.5-0.7,2.2-1.1c10.7-6.2,19.4-21.2,19.4-33.5
			C142.5,359.8,142.4,358.7,142.3,357.6z"/>
		<path class="st42" d="M139.8,359.2c0.8-0.5,1.7-1,2.5-1.6c-1.4-9.6-8.9-13.2-18.1-8.5c0,1,0,1.9,0,2.9
			C132.1,348.1,138.5,351.1,139.8,359.2z"/>
		<g>
			<path class="st6" d="M114.8,379.3v1.5l-4.4,2.6v-1.5l1.6-0.9v-3.8c-0.1,0.1-0.2,0.3-0.3,0.5c-0.1,0.2-0.3,0.4-0.5,0.6
				s-0.3,0.4-0.5,0.5c-0.2,0.2-0.3,0.3-0.5,0.4v-1.6c0.1-0.1,0.3-0.2,0.5-0.4c0.2-0.2,0.4-0.4,0.6-0.7c0.2-0.2,0.3-0.5,0.5-0.7
				c0.1-0.2,0.2-0.4,0.3-0.5l1.5-0.9v5.7L114.8,379.3z"/>
			<path class="st6" d="M121.3,373.4c0,0.6-0.1,1.1-0.2,1.7c-0.1,0.5-0.3,1.1-0.6,1.6c-0.3,0.5-0.6,0.9-0.9,1.3s-0.7,0.7-1.1,0.9
				c-0.4,0.2-0.8,0.4-1.1,0.4c-0.3,0-0.6-0.1-0.9-0.3c-0.3-0.2-0.4-0.5-0.6-0.9c-0.1-0.4-0.2-0.9-0.2-1.4c0-0.6,0.1-1.1,0.2-1.7
				s0.3-1.1,0.6-1.6c0.3-0.5,0.5-0.9,0.9-1.3c0.3-0.4,0.7-0.7,1.1-0.9c0.4-0.2,0.8-0.4,1.1-0.4c0.3,0,0.6,0.1,0.9,0.3
				c0.3,0.2,0.4,0.5,0.6,0.9C121.2,372.4,121.3,372.8,121.3,373.4z M119.8,374.3c0-0.3,0-0.6-0.1-0.9c-0.1-0.2-0.2-0.4-0.3-0.6
				c-0.1-0.1-0.3-0.2-0.4-0.2c-0.2,0-0.3,0-0.5,0.1s-0.4,0.3-0.6,0.5s-0.3,0.4-0.4,0.7c-0.1,0.3-0.2,0.6-0.3,0.9
				c-0.1,0.3-0.1,0.6-0.1,1c0,0.3,0,0.6,0.1,0.9c0.1,0.2,0.2,0.4,0.3,0.6c0.1,0.1,0.3,0.2,0.4,0.2c0.2,0,0.3,0,0.6-0.2
				c0.2-0.1,0.4-0.3,0.5-0.5c0.2-0.2,0.3-0.4,0.4-0.7c0.1-0.3,0.2-0.6,0.3-0.9C119.7,374.9,119.8,374.6,119.8,374.3z"/>
			<path class="st6" d="M128,369.5c0,0.6-0.1,1.1-0.2,1.7c-0.1,0.5-0.3,1.1-0.6,1.6c-0.3,0.5-0.6,0.9-0.9,1.3s-0.7,0.7-1.1,0.9
				c-0.4,0.2-0.8,0.4-1.1,0.4c-0.3,0-0.6-0.1-0.9-0.3c-0.3-0.2-0.4-0.5-0.6-0.9c-0.1-0.4-0.2-0.9-0.2-1.4c0-0.6,0.1-1.1,0.2-1.7
				s0.3-1.1,0.6-1.6c0.3-0.5,0.5-0.9,0.9-1.3c0.3-0.4,0.7-0.7,1.1-0.9c0.4-0.2,0.8-0.4,1.1-0.4c0.3,0,0.6,0.1,0.9,0.3
				c0.3,0.2,0.4,0.5,0.6,0.9C127.9,368.5,128,369,128,369.5z M126.5,370.4c0-0.3,0-0.6-0.1-0.9c-0.1-0.2-0.2-0.4-0.3-0.6
				c-0.1-0.1-0.3-0.2-0.4-0.2c-0.2,0-0.3,0-0.5,0.1s-0.4,0.3-0.6,0.5s-0.3,0.4-0.4,0.7c-0.1,0.3-0.2,0.6-0.3,0.9
				c-0.1,0.3-0.1,0.6-0.1,1c0,0.3,0,0.6,0.1,0.9c0.1,0.2,0.2,0.4,0.3,0.6c0.1,0.1,0.3,0.2,0.4,0.2c0.2,0,0.3,0,0.6-0.2
				c0.2-0.1,0.4-0.3,0.5-0.5c0.2-0.2,0.3-0.4,0.4-0.7c0.1-0.3,0.2-0.6,0.3-0.9C126.5,371,126.5,370.7,126.5,370.4z"/>
			<path class="st6" d="M130.7,366.4c-0.3,0.1-0.5,0.2-0.7,0.3c-0.2,0-0.4,0-0.6-0.1s-0.3-0.2-0.4-0.4c-0.1-0.2-0.1-0.4-0.1-0.7
				c0-0.3,0-0.5,0.1-0.8s0.2-0.6,0.4-0.8c0.2-0.3,0.4-0.5,0.6-0.7c0.2-0.2,0.5-0.4,0.7-0.6c0.2-0.1,0.5-0.2,0.7-0.3
				c0.2,0,0.4,0,0.6,0.1c0.2,0.1,0.3,0.2,0.4,0.4c0.1,0.2,0.1,0.4,0.1,0.7c0,0.3,0,0.5-0.1,0.8s-0.2,0.6-0.4,0.8s-0.4,0.5-0.6,0.7
				C131.2,366,131,366.2,130.7,366.4z M129.5,371.7l3.1-5.9l2.8-6l0.7,0.3l-3,5.8l-2.9,6.1L129.5,371.7z M130.7,365.5
				c0.1-0.1,0.2-0.2,0.3-0.3c0.1-0.1,0.2-0.2,0.2-0.4c0.1-0.1,0.1-0.3,0.2-0.4c0-0.2,0.1-0.3,0.1-0.4c0-0.3-0.1-0.5-0.2-0.6
				c-0.2-0.1-0.3-0.1-0.5,0c-0.1,0.1-0.2,0.2-0.3,0.3c-0.1,0.1-0.2,0.2-0.2,0.4c-0.1,0.1-0.1,0.3-0.2,0.4c0,0.1-0.1,0.3-0.1,0.4
				c0,0.3,0.1,0.5,0.2,0.6C130.3,365.7,130.5,365.7,130.7,365.5z M134.9,369.3c-0.3,0.1-0.5,0.2-0.7,0.3c-0.2,0-0.4,0-0.6-0.1
				c-0.2-0.1-0.3-0.2-0.4-0.4c-0.1-0.2-0.1-0.4-0.1-0.7c0-0.3,0-0.5,0.1-0.8s0.2-0.6,0.4-0.8c0.2-0.3,0.4-0.5,0.6-0.7
				c0.2-0.2,0.5-0.4,0.7-0.6c0.3-0.1,0.5-0.2,0.7-0.3c0.2,0,0.4,0,0.6,0.1c0.2,0.1,0.3,0.2,0.4,0.4c0.1,0.2,0.1,0.4,0.1,0.7
				c0,0.3,0,0.5-0.1,0.8s-0.2,0.6-0.4,0.8c-0.2,0.3-0.4,0.5-0.6,0.7C135.4,369,135.2,369.2,134.9,369.3z M134.9,368.5
				c0.1-0.1,0.2-0.2,0.3-0.3c0.1-0.1,0.2-0.2,0.2-0.4c0.1-0.1,0.1-0.3,0.2-0.4c0-0.1,0.1-0.3,0.1-0.4c0-0.2,0-0.3-0.1-0.4
				c0-0.1-0.1-0.2-0.2-0.2c-0.1-0.1-0.2-0.1-0.2-0.1c-0.1,0-0.2,0-0.3,0.1s-0.2,0.2-0.3,0.3c-0.1,0.1-0.2,0.2-0.2,0.4
				c-0.1,0.1-0.1,0.3-0.2,0.4c0,0.2-0.1,0.3-0.1,0.4c0,0.3,0.1,0.5,0.2,0.6C134.5,368.6,134.7,368.6,134.9,368.5z"/>
		</g>
	</g>
	<g>
		<g>
			
				<linearGradient id="SVGID_34_" gradientUnits="userSpaceOnUse" x1="291.2213" y1="88.6573" x2="140.3317" y2="91.2366" gradientTransform="matrix(1 0 0 -1 0 500)">
				<stop  offset="0" style="stop-color:#B6B9FE"/>
				<stop  offset="0.9996" style="stop-color:#5861D6"/>
			</linearGradient>
			<path class="st43" d="M287.6,412.6L231.4,445c-2.3,1.3-6.3,1.1-8.9-0.4L167.6,413c-2.6-1.5-2.9-3.8-0.6-5.1l56.2-32.4
				c2.3-1.3,6.3-1.1,8.9,0.4l54.9,31.7C289.6,409,289.9,411.3,287.6,412.6z"/>
			
				<linearGradient id="SVGID_35_" gradientUnits="userSpaceOnUse" x1="289.2749" y1="102.3005" x2="117.3767" y2="75.3946" gradientTransform="matrix(1 0 0 -1 0 500)">
				<stop  offset="0" style="stop-color:#E8E9FF"/>
				<stop  offset="0.9996" style="stop-color:#C0C0F6"/>
			</linearGradient>
			<path class="st44" d="M287.6,409.8l-56.2,32.4c-2.3,1.3-6.3,1.1-8.9-0.4l-54.9-31.7c-2.6-1.5-2.9-3.8-0.6-5.1l56.2-32.4
				c2.3-1.3,6.3-1.1,8.9,0.4l54.9,31.7C289.6,406.2,289.9,408.5,287.6,409.8z"/>
			<g>
				<path class="st15" d="M221.7,427.7l9.4-5.5c1.7-1,1.5-2.8-0.5-3.9l-2.2-1.3c-2-1.2-5.1-1.3-6.8-0.3l-9.4,5.5
					c-1.7,1-1.5,2.8,0.5,3.9l2.2,1.3C216.9,428.6,220,428.7,221.7,427.7z"/>
				<path class="st15" d="M252.4,399l-21.2,12.3c-1.7,1-1.5,2.8,0.5,3.9l2.2,1.3c2,1.2,5.1,1.3,6.8,0.3l21.2-12.3
					c1.7-1,1.5-2.8-0.5-3.9l-2.2-1.3C257.2,398.1,254.1,398,252.4,399z"/>
				<polygon class="st15" points="224.6,433 271.1,406.1 268.9,404.9 222.4,431.7 				"/>
				<polygon class="st15" points="227.7,434.8 260.4,415.9 258.2,414.6 225.5,433.5 				"/>
			</g>
		</g>
		<path class="st15" d="M249.7,395.9l-42.8,24.7c-1.6,0.9-4.5,0.8-6.4-0.3L179.2,408c-1.9-1.1-2.1-2.7-0.5-3.7l42.8-24.7
			c1.6-0.9,4.5-0.8,6.4,0.3l21.3,12.3C251.1,393.3,251.3,395,249.7,395.9z"/>
	</g>
	<g>
		<g>
			<g>
				<g>
					
						<linearGradient id="SVGID_36_" gradientUnits="userSpaceOnUse" x1="377.8951" y1="236.3183" x2="385.3873" y2="257.9304" gradientTransform="matrix(-0.9468 0.3218 -0.3218 -0.9468 680.4627 318.9794)">
						<stop  offset="7.079140e-002" style="stop-color:#AC5E74"/>
						<stop  offset="0.5672" style="stop-color:#9B5167"/>
						<stop  offset="0.9993" style="stop-color:#894258"/>
					</linearGradient>
					<path class="st45" d="M246.5,217.6L246.5,217.6c-1.2,0.8-2.8,0.5-3.6-0.6l-11.6-16.4c-0.8-1.2-0.5-2.8,0.6-3.6l0,0
						c1.2-0.8,2.8-0.5,3.6,0.6l11.6,16.4C248,215.2,247.7,216.8,246.5,217.6z"/>
					
						<linearGradient id="SVGID_37_" gradientUnits="userSpaceOnUse" x1="240.6113" y1="297.577" x2="228.4561" y2="303.6546" gradientTransform="matrix(1 0 0 -1 0 500)">
						<stop  offset="7.079140e-002" style="stop-color:#73EBFF"/>
						<stop  offset="0.2056" style="stop-color:#6EDAF4"/>
						<stop  offset="0.4723" style="stop-color:#60AED7"/>
						<stop  offset="0.8421" style="stop-color:#4968A8"/>
						<stop  offset="0.9993" style="stop-color:#3F4893"/>
					</linearGradient>
					<path class="st46" d="M238.5,199.4l-3.7-5.3c-1.3-1.8-3.8-2.2-5.6-1l0,0c-1.8,1.3-2.2,3.8-1,5.6l3.7,5.3
						C232,204,236.4,205.3,238.5,199.4z"/>
				</g>
				<g>
					<path class="st47" d="M225.4,220.4c0.1,0.2,0.4,0.4,0.6,0.5l13.6,7.8c1.5,0.8,3.6,0,4.6-1.8l0,0c1.1-1.9,0.7-4.1-0.7-4.9
						l-15.6-8.9c-0.4-0.2-0.8-0.2-1.2,0.1C225.6,214.2,223.2,217,225.4,220.4z"/>
				</g>
				<g>
					<path class="st48" d="M216.5,225c0.1,0.2,0.4,0.4,0.6,0.5l13.6,7.8c1.5,0.8,3.6,0,4.6-1.8l0,0c1.1-1.9,0.7-4.1-0.7-4.9
						l-15.6-8.9c-0.4-0.2-0.8-0.2-1.2,0.1C216.6,218.8,214.3,221.6,216.5,225z"/>
				</g>
				<g>
					<g>
						<path class="st49" d="M237.7,248.4c-0.1,1.1,2.6,1.8,4.8,3.1c3.1,1.8,6.5,2.8,8.1,1.9c0.4-0.2,0.6-0.5,0.6-0.9v-1.8
							c0.1-1-1.5-2.6-3.9-4.9c-2.6-2.5-4.3-4.1-8.1-1.9c-1.1,0.6-1.6,1.1-1.6,1.5L237.7,248.4z"/>
						<path class="st50" d="M247.4,245.7c3.1,3.1,4.8,4.9,3.2,5.8c-1.6,0.9-4.8-0.5-8.1-3c-2.9-2.2-7.1-2.5-3.2-4.7
							S244.8,243.2,247.4,245.7z"/>
					</g>
					<path class="st47" d="M244.9,243.5c0.1-0.2,0.2-0.5,0.2-0.8v-18.1c0-1.7-1.8-3.1-3.9-3.1l0,0c-2.1,0-3.9,1.4-3.9,3.1V245
						c0,0.4,0.3,0.8,0.7,0.9C239.5,246.4,243,247.1,244.9,243.5z"/>
				</g>
				
					<linearGradient id="SVGID_38_" gradientUnits="userSpaceOnUse" x1="450.1938" y1="291.3036" x2="470.6111" y2="291.3036" gradientTransform="matrix(-1 0 0 -1 683.3077 500)">
					<stop  offset="7.079140e-002" style="stop-color:#FFFFFF"/>
					<stop  offset="0.3469" style="stop-color:#EEF0F1"/>
					<stop  offset="0.8905" style="stop-color:#C3C9CE"/>
					<stop  offset="0.9993" style="stop-color:#B9C0C6"/>
				</linearGradient>
				<path class="st51" d="M217.8,226.6c0.1,0.1,0.2,0.1,0.3,0.1c1.7,0.1,7.9-1.2,14.1-8.2c0.5-0.6,0.8-1.4,0.8-2v-19.8
					c0-1.5-0.5-2.5-1.4-3l-4.7-2.7c-0.8-0.5-2-0.4-3.3,0.3l-6.4,3.7c-2.6,1.5-4.7,5.1-4.7,8.1v20c0,0.5,0.2,0.8,0.4,1L217.8,226.6z"
					/>
				<g>
					<g>
						<path class="st49" d="M228.4,252.5c-0.1,1.1,2.6,1.8,4.8,3.1c3.1,1.8,6.5,2.8,8.1,1.9c0.4-0.2,0.6-0.5,0.6-0.9v-1.8
							c0.1-1-1.5-2.6-3.9-4.9c-2.6-2.5-4.3-4.1-8.1-1.9c-1.1,0.6-1.6,1.1-1.6,1.5L228.4,252.5z"/>
						<path class="st50" d="M238.1,249.8c3.1,3.1,4.8,4.9,3.2,5.8c-1.6,0.9-4.8-0.5-8.1-3c-2.9-2.2-7.1-2.5-3.2-4.7
							C233.9,245.7,235.5,247.3,238.1,249.8z"/>
					</g>
					<path class="st48" d="M235.6,247.6c0.1-0.2,0.2-0.5,0.2-0.8v-18.1c0-1.7-1.8-3.1-3.9-3.1l0,0c-2.1,0-3.9,1.4-3.9,3.1v20.5
						c0,0.4,0.3,0.8,0.7,0.9C230.2,250.5,233.7,251.2,235.6,247.6z"/>
				</g>
				<path class="st52" d="M218.5,196.1c0,0.5,0.3,1,1,1.4c1.3,0.7,3.4,0.7,4.7,0c0.7-0.4,1-0.9,1-1.4v-4.3c0-0.5-0.3-1-1-1.4
					c-1.3-0.7-3.4-0.7-4.7,0c-0.7,0.4-1,0.9-1,1.4V196.1z"/>
				
					<linearGradient id="SVGID_39_" gradientUnits="userSpaceOnUse" x1="454.6411" y1="312.7703" x2="470.778" y2="318.2453" gradientTransform="matrix(-1 0 0 -1 683.3077 500)">
					<stop  offset="7.079140e-002" style="stop-color:#AC5E74"/>
					<stop  offset="0.5672" style="stop-color:#9B5167"/>
					<stop  offset="0.9993" style="stop-color:#894258"/>
				</linearGradient>
				<circle class="st53" cx="221.8" cy="184.9" r="9.1"/>
				<path class="st54" d="M216.9,192c0.6-0.6,1.5-1.7,1.9-3c0-0.1,0-0.1,0-0.2v-4.3c0-0.9,0.2-1.7,0.7-2.5c0.4-0.6,1-1.2,1.8-1.1
					c0,0,7.3,3.2,10-2.7c0.2-0.5,0-1-0.5-1.1s-1.2-0.6-2-1.8c-0.2-0.3-0.5-0.5-0.9-0.4c-0.7,0.2-2,0.2-3.3-1.2
					c-0.2-0.2-0.4-0.3-0.6-0.3c-1.4,0-6.2,0.3-8.8,2.1c0,0,0,0-0.1,0c-0.6,0.5-9.6,8.1,0.6,16.5C216.2,192.3,216.7,192.3,216.9,192z
					"/>
				<path class="st55" d="M218.8,190c0,1.1-0.8,1.5-1.7,1s-1.7-1.9-1.7-2.9c0-1.1,0.8-1.5,1.7-1S218.8,188.9,218.8,190z"/>
			</g>
			<g>
				
					<linearGradient id="SVGID_40_" gradientUnits="userSpaceOnUse" x1="106.2356" y1="270.2664" x2="75.5259" y2="281.0654" gradientTransform="matrix(-1 0 0 -1 314.9276 500)">
					<stop  offset="0" style="stop-color:#FFFFFF"/>
					<stop  offset="0.5824" style="stop-color:#DAE4FC"/>
					<stop  offset="0.9993" style="stop-color:#BDCEFA"/>
				</linearGradient>
				<polygon class="st56" points="244.5,220.9 228.3,230.2 216,223.5 232.5,214 				"/>
				<polygon class="st57" points="244.5,220.9 247,204.7 229.1,215.1 228.3,230.2 				"/>
			</g>
		</g>
		<g>
			
				<linearGradient id="SVGID_41_" gradientUnits="userSpaceOnUse" x1="356.4597" y1="173.557" x2="356.4597" y2="197.8478" gradientTransform="matrix(-0.8144 0.5802 -0.5802 -0.8144 620.9628 157.6321)">
				<stop  offset="7.079140e-002" style="stop-color:#AC5E74"/>
				<stop  offset="0.5672" style="stop-color:#9B5167"/>
				<stop  offset="0.9993" style="stop-color:#894258"/>
			</linearGradient>
			<path class="st58" d="M230.4,223.7L230.4,223.7c-1.2,0.8-2.8,0.6-3.6-0.6l-11.7-16.4c-0.8-1.2-0.6-2.8,0.6-3.6l0,0
				c1.2-0.8,2.8-0.6,3.6,0.6l11.7,16.4C231.8,221.3,231.5,222.9,230.4,223.7z"/>
			
				<linearGradient id="SVGID_42_" gradientUnits="userSpaceOnUse" x1="222.5607" y1="290.9022" x2="210.1411" y2="299.358" gradientTransform="matrix(1 0 0 -1 0 500)">
				<stop  offset="7.079140e-002" style="stop-color:#73EBFF"/>
				<stop  offset="0.2056" style="stop-color:#6EDAF4"/>
				<stop  offset="0.4723" style="stop-color:#60AED7"/>
				<stop  offset="0.8421" style="stop-color:#4968A8"/>
				<stop  offset="0.9993" style="stop-color:#3F4893"/>
			</linearGradient>
			<path class="st59" d="M221.8,206.2l-3.3-5.6c-1.1-1.9-3.5-2.6-5.4-1.5l0,0c-1.9,1.1-2.6,3.5-1.5,5.4l3.3,5.6
				C214.9,210.2,219.2,212,221.8,206.2z"/>
		</g>
	</g>
	
		<linearGradient id="SVGID_43_" gradientUnits="userSpaceOnUse" x1="307.7989" y1="141.4924" x2="349.0208" y2="167.5645" gradientTransform="matrix(1 0 0 -1 0 500)">
		<stop  offset="0" style="stop-color:#AC36A8;stop-opacity:0"/>
		<stop  offset="0.2425" style="stop-color:#9B36A8;stop-opacity:0.2425"/>
		<stop  offset="0.7195" style="stop-color:#7037A8;stop-opacity:0.7197"/>
		<stop  offset="0.9996" style="stop-color:#5337A8"/>
	</linearGradient>
	<polygon class="st60" points="315.7,341.5 293.7,354 315.2,366.2 337.1,353.4 	"/>
	<g>
		
			<linearGradient id="SVGID_44_" gradientUnits="userSpaceOnUse" x1="361.276" y1="237.557" x2="381.2761" y2="252.5571" gradientTransform="matrix(1 0 0 -1 0 500)">
			<stop  offset="0" style="stop-color:#AC36A8;stop-opacity:0"/>
			<stop  offset="0.2425" style="stop-color:#9B36A8;stop-opacity:0.2425"/>
			<stop  offset="0.7195" style="stop-color:#7037A8;stop-opacity:0.7197"/>
			<stop  offset="0.9996" style="stop-color:#5337A8"/>
		</linearGradient>
		<polygon class="st61" points="373.3,245.1 351.3,257.6 367.2,266.7 389.1,253.9 		"/>
		<g>
			<g>
				
					<linearGradient id="SVGID_45_" gradientUnits="userSpaceOnUse" x1="305.2835" y1="-140.8589" x2="302.5923" y2="-119.3298" gradientTransform="matrix(0.9568 -0.2908 0.2908 0.9568 120.8557 396.4652)">
					<stop  offset="7.079140e-002" style="stop-color:#FCC4B7"/>
					<stop  offset="0.3148" style="stop-color:#F7B8A6"/>
					<stop  offset="0.7948" style="stop-color:#E99A7B"/>
					<stop  offset="0.9993" style="stop-color:#E28C66"/>
				</linearGradient>
				<path class="st62" d="M371.7,172.4L371.7,172.4c-1.3,0.2-2.2,1.5-1.9,2.8l3.5,18.5c0.2,1.3,1.5,2.2,2.8,1.9l0,0
					c1.3-0.2,2.2-1.5,1.9-2.8l-3.5-18.5C374.2,173,373,172.1,371.7,172.4z"/>
				<path class="st18" d="M378.7,189.7l1.1,6c0.4,2-1,4-3,4.4l0,0c-2,0.4-4-1-4.4-3l-1.1-6C371.4,191.1,373.3,187.2,378.7,189.7z"/>
			</g>
			<g>
				<g>
					<path class="st49" d="M388.9,253.7c0.1,1.1-2.4,1.7-4.5,2.9c-2.9,1.7-6.1,2.6-7.6,1.8c-0.4-0.2-0.6-0.5-0.6-0.8v-1.7
						c-0.1-1,1.4-2.5,3.6-4.6c2.4-2.4,4-3.8,7.6-1.8c1,0.6,1.5,1,1.5,1.4V253.7z"/>
					<path class="st50" d="M379.8,251.2c-2.9,2.9-4.5,4.6-3,5.4c1.5,0.9,4.5-0.4,7.6-2.8c2.7-2,6.7-2.3,3-4.4
						S382.3,248.9,379.8,251.2z"/>
				</g>
				
					<linearGradient id="SVGID_46_" gradientUnits="userSpaceOnUse" x1="603.2054" y1="248.1021" x2="603.2054" y2="278.2703" gradientTransform="matrix(-1 0 0 -1 988.9054 500)">
					<stop  offset="7.110540e-002" style="stop-color:#3A55CA"/>
					<stop  offset="0.2683" style="stop-color:#354CB9"/>
					<stop  offset="0.6562" style="stop-color:#28368E"/>
					<stop  offset="0.9993" style="stop-color:#1B2062"/>
				</linearGradient>
				<path class="st63" d="M382.2,249.1c-0.1-0.2-0.2-0.5-0.2-0.7v-25.2c0-1.6,1.6-2.9,3.7-2.9l0,0c2,0,3.7,1.3,3.7,2.9v27.4
					c0,0.4-0.3,0.8-0.6,0.9C387.3,251.9,383.9,252.5,382.2,249.1z"/>
			</g>
			<g>
				<g>
					<path class="st49" d="M381,247.9c0.1,1.1-2.4,1.7-4.5,2.9c-2.9,1.7-6.1,2.6-7.6,1.8c-0.4-0.2-0.6-0.5-0.6-0.8v-1.7
						c-0.1-1,1.4-2.5,3.6-4.6c2.4-2.4,4-3.8,7.6-1.8c1,0.6,1.5,1,1.5,1.4V247.9z"/>
					<path class="st50" d="M371.9,245.4c-2.9,2.9-4.5,4.6-3,5.4s4.5-0.4,7.6-2.8c2.7-2,6.7-2.3,3-4.4
						C375.9,241.5,374.4,243,371.9,245.4z"/>
				</g>
				
					<linearGradient id="SVGID_47_" gradientUnits="userSpaceOnUse" x1="611.1054" y1="252.2857" x2="611.1054" y2="282.8372" gradientTransform="matrix(-1 0 0 -1 988.9054 500)">
					<stop  offset="7.110540e-002" style="stop-color:#3A55CA"/>
					<stop  offset="0.2683" style="stop-color:#354CB9"/>
					<stop  offset="0.6562" style="stop-color:#28368E"/>
					<stop  offset="0.9993" style="stop-color:#1B2062"/>
				</linearGradient>
				<path class="st64" d="M374.3,243.3c-0.1-0.2-0.2-0.5-0.2-0.7v-25.2c0-1.6,1.6-2.9,3.7-2.9l0,0c2,0,3.7,1.3,3.7,2.9v27.4
					c0,0.4-0.3,0.8-0.6,0.9C379.4,246.1,376,246.7,374.3,243.3z"/>
			</g>
			<path class="st65" d="M388.1,227.7c-0.1,0.1-0.2,0.1-0.3,0.1c-1.6,0.1-7.4-1.1-13.2-7.7c-0.5-0.5-0.8-1.3-0.8-1.9v-18.6
				c0-1.4,0.5-2.4,1.3-2.8l4.4-2.5c0.8-0.5,1.9-0.4,3.1,0.3l6,3.4c2.4,1.4,4.4,4.8,4.4,7.6v18.7c0,0.4-0.2,0.8-0.4,0.9L388.1,227.7z
				"/>
			<path class="st66" d="M386.4,199.2c0,0.5-0.3,0.9-0.9,1.3c-1.2,0.7-3.2,0.7-4.4,0c-0.6-0.4-0.9-0.8-0.9-1.3v-4
				c0-0.5,0.3-0.9,0.9-1.3c1.2-0.7,3.2-0.7,4.4,0c0.6,0.4,0.9,0.8,0.9,1.3V199.2z"/>
			
				<linearGradient id="SVGID_48_" gradientUnits="userSpaceOnUse" x1="611.3381" y1="304.1342" x2="600.336" y2="317.8867" gradientTransform="matrix(-1 0 0 -1 988.9054 500)">
				<stop  offset="7.079140e-002" style="stop-color:#FCC4B7"/>
				<stop  offset="0.3148" style="stop-color:#F7B8A6"/>
				<stop  offset="0.7948" style="stop-color:#E99A7B"/>
				<stop  offset="0.9993" style="stop-color:#E28C66"/>
			</linearGradient>
			<circle class="st67" cx="383.3" cy="188.7" r="8.5"/>
			<path class="st68" d="M390.4,178.6c7.2,2.5,3.6,13.1-1.6,16.9c-2.6-1.4,0.6-3.9-3-2.2c-0.7-3.4,0.9-2.4-0.1-6.7
				c-3.7,1.9-10.9-0.4-12-4c1.3-0.6,2.6-4.2,5.6-5.6C383.3,175.5,388.2,176.2,390.4,178.6z"/>
			<path class="st69" d="M386.2,193.4c0,1,0.7,1.4,1.6,0.9s1.6-1.7,1.6-2.7s-0.7-1.4-1.6-0.9C386.9,191.2,386.2,192.4,386.2,193.4z"
				/>
			<g>
				
					<linearGradient id="SVGID_49_" gradientUnits="userSpaceOnUse" x1="224.5844" y1="-101.8785" x2="224.5844" y2="-80.3422" gradientTransform="matrix(0.9999 -1.350000e-002 1.350000e-002 0.9999 166.1292 285.8568)">
					<stop  offset="7.079140e-002" style="stop-color:#FCC4B7"/>
					<stop  offset="0.3148" style="stop-color:#F7B8A6"/>
					<stop  offset="0.7948" style="stop-color:#E99A7B"/>
					<stop  offset="0.9993" style="stop-color:#E28C66"/>
				</linearGradient>
				<path class="st70" d="M389.3,179.1L389.3,179.1c-1.3,0-2.4,1.1-2.4,2.4l0.3,18.8c0,1.3,1.1,2.4,2.4,2.4l0,0
					c1.3,0,2.4-1.1,2.4-2.4l-0.3-18.8C391.7,180.2,390.6,179.1,389.3,179.1z"/>
				<path class="st18" d="M393.2,197.4l0.1,6.1c0,2.1-1.6,3.8-3.7,3.8l0,0c-2.1,0-3.8-1.6-3.8-3.7l-0.1-6.1
					C385.8,197.5,388.3,194,393.2,197.4z"/>
			</g>
		</g>
	</g>
	<g>
		<g>
			<g>
				<g>
					<g>
						<path class="st49" d="M314,332.8c-0.3,0.1-0.4,0.5-0.5,1.1c0,0.2,1.6-0.9,1.5-0.4c0,0.2-1.2,7.9,1.3,10.5
							c0.3,0.3,0.6,0.2,0.9,0.1l0.7-0.4c0.8-0.4,1.3-2.2,2-4.8c0.8-2.9,1.2-4.8-2-6.7c-0.9-0.5-1.5-0.7-1.8-0.5L314,332.8z"/>
						<path class="st71" d="M320,338.8c-0.9,3.5-1.5,5.5-2.9,4.7c-1.3-0.8-1.6-3.7-1.2-7.2c0.4-3-1.1-6.2,2.1-4.3
							C321.3,334,320.8,335.9,320,338.8z"/>
					</g>
				</g>
				<path class="st72" d="M340.9,316.1l-6.6,2.4l-2.7,3.1c0,0-4.8,2-8.5,6c0,0-1.4,2.1-6.2,4.5c0,0,0,3.3,2.9,3.8l18.9-10.9
					c1.3-0.8,2.2-2.1,2.4-3.6C341.2,320.2,341.2,318.5,340.9,316.1z"/>
			</g>
		</g>
		<g>
			<g>
				<g>
					<path class="st49" d="M326.9,349.6c0,0.3,0.2,0.6,0.7,0.9c0.1,0.1,0-1.8,0.4-1.5c0.1,0.1,6.3,4.9,9.7,4
						c0.4-0.1,0.5-0.4,0.5-0.7v-0.8c0-0.9-1.3-2.2-3.2-4.1c-2.2-2.1-3.6-3.4-6.8-1.6c-0.9,0.5-1.3,0.9-1.3,1.3L326.9,349.6z"/>
					<path class="st71" d="M335.1,347.3c2.6,2.6,4.1,4.1,2.7,4.9s-4-0.4-6.8-2.5c-2.4-1.8-6-2.1-2.7-3.9
						C331.5,343.9,332.9,345.2,335.1,347.3z"/>
				</g>
			</g>
			
				<linearGradient id="SVGID_50_" gradientUnits="userSpaceOnUse" x1="328.9949" y1="154.5662" x2="328.9949" y2="178.4793" gradientTransform="matrix(1 0 0 -1 0 500)">
				<stop  offset="7.079140e-002" style="stop-color:#FCC4B7"/>
				<stop  offset="0.3148" style="stop-color:#F7B8A6"/>
				<stop  offset="0.7948" style="stop-color:#E99A7B"/>
				<stop  offset="0.9993" style="stop-color:#E28C66"/>
			</linearGradient>
			<path class="st73" d="M332.4,346.1l-0.2-23.7l-6.4,2.1l-0.1,4.3c0,0-0.6,5.2,1,10.4c0,0,1.1,2.3,0.9,7.6
				C327.6,346.8,330.5,348.4,332.4,346.1z"/>
		</g>
		<g>
			
				<linearGradient id="SVGID_51_" gradientUnits="userSpaceOnUse" x1="350.1059" y1="188.8161" x2="336.4406" y2="214.0442" gradientTransform="matrix(1 0 0 -1 0 500)">
				<stop  offset="7.079140e-002" style="stop-color:#FCC4B7"/>
				<stop  offset="0.3148" style="stop-color:#F7B8A6"/>
				<stop  offset="0.7948" style="stop-color:#E99A7B"/>
				<stop  offset="0.9993" style="stop-color:#E28C66"/>
			</linearGradient>
			<path class="st74" d="M349.9,313L349.9,313c-1.3,0.6-2.8,0-3.4-1.3l-10.2-22.4c-0.6-1.3,0-2.8,1.3-3.4l0,0c1.3-0.6,2.8,0,3.4,1.3
				l10.2,22.4C351.8,310.9,351.2,312.4,349.9,313z"/>
		</g>
		<path class="st6" d="M321.6,317v8.7c0,0,10.2,3.5,19.9-8.7v-8.5L321.6,317z"/>
		<path class="st16" d="M326.3,319.7c0.1,0.1,0.2,0.1,0.3,0.1c1.7,0.1,7.9-1.2,14.1-8.2c0.5-0.6,0.8-1.3,0.8-2v-19.7
			c0-1.5-0.5-2.5-1.4-3l-4.6-2.7c-0.8-0.5-2-0.4-3.3,0.3l-6.3,3.7c-2.6,1.5-4.6,5.1-4.6,8V316c0,0.5,0.2,0.8,0.4,0.9L326.3,319.7z"
			/>
		<path class="st75" d="M328.1,289.3c0,0.5,0.3,1,1,1.4c1.3,0.7,3.3,0.7,4.6,0c0.6-0.4,1-0.9,1-1.4V285c0-0.5-0.3-1-1-1.4
			c-1.3-0.7-3.3-0.7-4.6,0c-0.6,0.4-1,0.9-1,1.4V289.3z"/>
		<g>
			
				<linearGradient id="SVGID_52_" gradientUnits="userSpaceOnUse" x1="312.534" y1="184.7713" x2="323.4661" y2="209.579" gradientTransform="matrix(1 0 0 -1 0 500)">
				<stop  offset="7.079140e-002" style="stop-color:#FCC4B7"/>
				<stop  offset="0.3148" style="stop-color:#F7B8A6"/>
				<stop  offset="0.7948" style="stop-color:#E99A7B"/>
				<stop  offset="0.9993" style="stop-color:#E28C66"/>
			</linearGradient>
			<path class="st76" d="M310.6,317.6L310.6,317.6c-1.3-0.6-1.8-2.2-1.1-3.4l11.2-22.1c0.6-1.3,2.2-1.8,3.4-1.1l0,0
				c1.3,0.6,1.8,2.2,1.1,3.4L314,316.5C313.4,317.7,311.9,318.2,310.6,317.6z"/>
		</g>
		<g>
			<path class="st77" d="M339.7,275.7l3.2,12.6c0.3,1.2-0.9,2.2-2,1.7l-7.4-3.1c-0.6-0.3-1-1-0.9-1.6L335,273c0.3-1.3,2-1.6,2.7-0.5
				l1.8,2.9C339.6,275.5,339.6,275.6,339.7,275.7z"/>
			<path class="st78" d="M328.3,283.2c0,1.1-0.8,1.5-1.7,1c-0.9-0.5-1.7-1.8-1.7-2.9s0.8-1.5,1.7-1
				C327.6,280.9,328.3,282.2,328.3,283.2z"/>
			
				<linearGradient id="SVGID_53_" gradientUnits="userSpaceOnUse" x1="341.2755" y1="221.2494" x2="321.934" y2="222.5108" gradientTransform="matrix(1 0 0 -1 0 500)">
				<stop  offset="7.079140e-002" style="stop-color:#FCC4B7"/>
				<stop  offset="0.3148" style="stop-color:#F7B8A6"/>
				<stop  offset="0.7948" style="stop-color:#E99A7B"/>
				<stop  offset="0.9993" style="stop-color:#E28C66"/>
			</linearGradient>
			<circle class="st79" cx="331.3" cy="278.1" r="9"/>
			<path class="st77" d="M322.5,279.3c0,0,7.6,4.2,11.3-6.7c0,0,2,4.6,6.9,3.6c0,0,0-7.1-7.4-8.5
				C333.4,267.7,320.4,266.4,322.5,279.3z"/>
			<path class="st77" d="M326.7,279.7l3.2,12.6c0.3,1.2-0.9,2.2-2,1.7l-7.4-3.1c-0.6-0.3-1-1-0.9-1.6L322,277c0.3-1.3,2-1.6,2.7-0.5
				l1.8,2.9C326.6,279.4,326.7,279.5,326.7,279.7z"/>
		</g>
	</g>
</g>
<g id="DESIGNED_BY_FREEPIK">
</g>
</svg>
