<svg xmlns="http://www.w3.org/2000/svg" id="Layer_1" viewBox="0 0 500 500">
  <style>
    .st0{fill:#FFFFFF}.st2{fill:#FFFFFF}.st4{fill:#FFFFFF;stroke:#062241;stroke-width:2;stroke-miterlimit:10}.st5{fill:#062241}.st6{fill:none;stroke:#062241;stroke-width:2;stroke-miterlimit:10}.st7{fill:none;stroke:#FFA100;stroke-width:5;stroke-linecap:round;stroke-linejoin:round;stroke-miterlimit:10}.st8{fill:#FFA100}.st9{font-family:&apos;MyriadPro-Regular&apos;}.st10{font-size:24.8316px}.st11{fill:none;stroke:#062241;stroke-miterlimit:10}.st12{fill:#FFFFFF;stroke:#062241;stroke-miterlimit:10}.st13{font-size:19.4757px}.st14{fill:none;stroke:#062241;stroke-miterlimit:10}.st15{fill:#FFA100;stroke:#062241;stroke-miterlimit:10}.st16{fill:#FFFFFF;stroke:#FFA100;stroke-width:2;stroke-miterlimit:10}.st17{fill:#FFA100;stroke:#062241;stroke-width:2;stroke-miterlimit:10}.st19{fill:#FFA100;stroke:#062241;stroke-miterlimit:10}

 
    .st7{
  stroke-dasharray: 1000;
  stroke-dashoffset: 2000;
  animation: dash 2.5s linear alternate infinite;
}

@keyframes dash {
  from {
    stroke-dashoffset: 1000;
  }
  to {
    stroke-dashoffset: 0;
  }
}

  </style>
  <path id="BACKGROUND" d="M0 0h500v500H0z" class="st0"/>
  <g id="OBJECTS">
    <path d="M491.8 304.4c0-11.5-9.5-21-21-21H359.9c-11.5 0-21-9.4-21-21v-4c0-11.6 9.5-21 21-21H401c11.5 0 21-9.4 21-21v-4c0-11.6-9.5-21-21-21h-54.9c-11.5 0-21-9.5-21-21v-4c0-11.5-9.4-21-21-21H180.7c-11.6 0-21 9.5-21 21v4c0 11.5-9.4 21-21 21h-29.1c-11.6 0-21 9.4-21 21v4c0 11.6 9.4 21 21 21h.1c11.6 0 21 9.4 21 21v4c0 11.6-9.5 21-21 21H48.8c-11.5 0-21 9.5-21 21v4c0 11.5 9.5 21 21 21h29.9c11.6 0 21 9.4 21 21v3.8c0 11.6-9.4 21-21 21H54.1c-11.5 0-21 9.5-21 21v4c0 11.5 9.5 21 21 21h303.5c11.6 0 21-9.5 21-21v-4c0-11.5 9.5-21 21-21h24.5c11.5 0 21-9.4 21-21v-3.8c0-11.6 9.4-21 21-21h4.6c11.5 0 21-9.5 21-21l.1-4z" class="st0"/>
    <path fill="none" stroke="#FFA100" stroke-miterlimit="10" d="M491.8 304.4c0-11.5-9.5-21-21-21H359.9c-11.5 0-21-9.4-21-21v-4c0-11.6 9.5-21 21-21H401c11.5 0 21-9.4 21-21v-4c0-11.6-9.5-21-21-21h-54.9c-11.5 0-21-9.5-21-21v-4c0-11.5-9.4-21-21-21H180.7c-11.6 0-21 9.5-21 21v4c0 11.5-9.4 21-21 21h-29.1c-11.6 0-21 9.4-21 21v4c0 11.6 9.4 21 21 21h.1c11.6 0 21 9.4 21 21v4c0 11.6-9.5 21-21 21H48.8c-11.5 0-21 9.5-21 21v4c0 11.5 9.5 21 21 21h29.9c11.6 0 21 9.4 21 21v3.8c0 11.6-9.4 21-21 21H54.1c-11.5 0-21 9.5-21 21v4c0 11.5 9.5 21 21 21h303.5c11.6 0 21-9.5 21-21v-4c0-11.5 9.5-21 21-21h24.5c11.5 0 21-9.4 21-21v-3.8c0-11.6 9.4-21 21-21h4.6c11.5 0 21-9.5 21-21l.1-4z"/>
    <path d="M103.7 226.6h269.5V395H103.7z" class="st0"/>
    <path d="M125.5 336.5h29.6v36h-29.6zM172.7 324.5h29.6v47.9h-29.6zM219.8 306.5h29.6v66h-29.6zM267 285.9h29.6v86.6H267zM314.1 246.1h29.6v126.4h-29.6z" class="st2"/>
    <path fill="none" stroke="#FFA100" stroke-miterlimit="10" stroke-width="2" d="M0 411.6h480.9"/>
    <path d="M365.2 216.1H112c-7.7 0-14 6.8-14 15.2v174.3h281.2V231.3c0-8.4-6.3-15.2-14-15.2zm5.4 185.1h-264V228h264v173.2z" class="st4"/>
    <path d="M386 410.4H91.2c-5 0-9.1-4.1-9.1-9.1V397c0-2.8 2.3-5.1 5.1-5.1H390c2.8 0 5.1 2.3 5.1 5.1v4.3c.1 5.1-4 9.1-9.1 9.1z" class="st4"/>
    <ellipse cx="117.7" cy="401.9" class="st5" rx="3.4" ry="3.6"/>
    <ellipse cx="127.9" cy="401.5" class="st5" rx="3.4" ry="3.6"/>
    <path d="M452 402c0 1-.2 1.9-.4 2.7-1 3.1-3.8 5.4-7 5.4h-21.7c-2 0-3.9-.9-5.3-2.4-.8-.8-1.4-1.8-1.8-3-.3-.8-.4-1.8-.4-2.7 0-7.4 5.6-13.5 12.5-13.5h11.7c3.4 0 6.5 1.5 8.8 4 2.2 2.5 3.6 5.8 3.6 9.5z" class="st4"/>
    <path d="M451.5 404.8c-1 3.1-3.8 5.4-7 5.4h-21.7c-2 0-3.9-.9-5.3-2.4-.8-.8-1.4-1.8-1.8-3h35.8z" class="st4"/>
    <path d="M433.6 388.6v16.2" class="st6"/>
    <path d="M339 265.1l11.7-1.9 1.1 13.2" class="st7"/>
    <path d="M125.5 372.4l33.1-25.7 24.2 12.3 55.9-64.3 42.8 56.3 68.2-86.3" class="st7"/>
    <path d="M403.9 93.2h-11.4s-13.6 14.7-13.8 25.1c-.2 10.4 6.3 15.6 9.1 16 2.8.4 10.5.3 10.5.3s7.7.1 10.5-.3 9.3-5.6 9.1-16c-.4-10.4-14-25.1-14-25.1zM403.9 90.5l4.5-4.9s-.9-1.8-2.8-1.8-1.8 1.2-3.2 1.2c-1.4 0-2.5-2.4-4.1-2.5-1.6 0-2.5 2.6-4.2 2.5-1.6-.1-1.5-1.2-3-1.2s-2.9 1.8-2.9 1.8l4.5 5 11.2-.1z" class="st4"/>
    <path d="M404.6 91.9c0 .8-.4 1.4-.8 1.4h-11.2c-.5 0-.8-.6-.8-1.4 0-.8.4-1.4.8-1.4h11.2c.4 0 .8.6.8 1.4z" class="st4"/>
    <text class="st8 st9 st10" transform="matrix(.9252 0 0 1 392.2432 121.2266)">
      $
    </text>
    <text class="st11 st9 st10" transform="matrix(.9252 0 0 1 392.2432 121.2266)">
      $
    </text>
    <g>
      <ellipse cx="460.9" cy="137.7" class="st4" rx="12.4" ry="13.4"/>
      <ellipse cx="460.9" cy="137.7" class="st12" rx="9.8" ry="10.6"/>
      <text class="st8 st9 st13" transform="matrix(.9252 0 0 1 456.3086 143.4492)">
        $
      </text>
      <text class="st14 st9 st13" transform="matrix(.9252 0 0 1 456.3086 143.4492)">
        $
      </text>
    </g>
    <g>
      <ellipse cx="483.5" cy="193.5" class="st4" rx="12.4" ry="13.4"/>
      <ellipse cx="483.5" cy="193.5" class="st12" rx="9.8" ry="10.6"/>
      <text class="st8 st9 st13" transform="matrix(.9252 0 0 1 478.8955 199.2129)">
        $
      </text>
      <text class="st14 st9 st13" transform="matrix(.9252 0 0 1 478.8955 199.2129)">
        $
      </text>
    </g>
    <g>
      <path d="M169.7 107.3h-16.9c-2.3 0-4.2 1.8-4.2 4.1v44.3c0 2.3 1.9 4.1 4.2 4.1h16.9c2.3 0 4.2-1.8 4.2-4.1v-44.3c0-2.2-1.9-4.1-4.2-4.1z" class="st6"/>
      <path d="M164 110.5c0 .3-.2.5-.5.5h-3.6c-.3 0-.5-.2-.5-.5s.2-.5.5-.5h3.6c.3 0 .5.2.5.5z" class="st15"/>
      <ellipse cx="158.1" cy="110.5" class="st15" rx=".5" ry=".5"/>
      <ellipse cx="161.2" cy="155.9" class="st11" rx="1.5" ry="1.6"/>
      <path d="M151.4 112.7h19.5v39.9h-19.5z" class="st12"/>
    </g>
    <path d="M350.7 138.3c0-6.8-5.1-12.4-11.5-12.4-3.2 0-6.1 1.4-8.2 3.7-1.7-7.8-8.2-13.7-16-13.7-7.9 0-14.5 6-16 14.1-1.6-1.1-3.4-1.8-5.4-1.8-5.2 0-9.4 4.4-9.8 9.9h-2.7c-2.9 0-5.3 2.5-5.3 5.7 0 3.1 2.4 5.7 5.3 5.7h62.1c1.2 0 2.2-.4 3.1-1.1 2.9-1.8 4.4-5.3 4.4-10.1zM413.5 283.4c0-6.8 5.1-12.4 11.5-12.4 3.2 0 6.1 1.4 8.2 3.7 1.7-7.8 8.2-13.7 16-13.7 7.9 0 14.5 6 16 14.1 1.6-1.1 3.4-1.8 5.4-1.8 5.2 0 9.4 4.4 9.8 9.9h2.7c2.9 0 5.3 2.5 5.3 5.7 0 3.1-2.4 5.7-5.3 5.7H421c-1.2 0-2.2-.4-3.1-1.1-3-1.8-4.4-5.3-4.4-10.1z" class="st4"/>
    <g>
      <path d="M40.2 391.2c1.2 0 2.1-1 2.1-2.3h-4.2c0 1.3.9 2.3 2.1 2.3zM45.5 362.2v8H34.6v-8" class="st4"/>
      <ellipse cx="40.2" cy="350.1" class="st4" rx="12.4" ry="13.4"/>
      <path d="M45.9 374c0 .6-.5 1.2-1.1 1.2h-9.3c-.6 0-1.1-.5-1.1-1.2 0-.6.5-1.2 1.1-1.2h9.3c.6.1 1.1.6 1.1 1.2zM45.9 379.2c0 .6-.5 1.2-1.1 1.2h-9.3c-.6 0-1.1-.5-1.1-1.2 0-.6.5-1.2 1.1-1.2h9.3c.6 0 1.1.6 1.1 1.2zM45.9 384.4c0 .6-.5 1.2-1.1 1.2h-9.3c-.6 0-1.1-.5-1.1-1.2 0-.6.5-1.2 1.1-1.2h9.3c.6 0 1.1.6 1.1 1.2z" class="st6"/>
      <path d="M41.2 331.1v-6.6c0-.6-.5-1.1-1-1.1-.6 0-1 .5-1 1.1v6.6h2zM57.9 350.9H64c.6 0 1-.5 1-1.1s-.5-1.1-1-1.1h-6.1v2.2zM53.9 337.9l4.6-4.4c.4-.4.5-1.1.1-1.6s-1-.5-1.5-.1l-4.6 4.4 1.4 1.7zM23.8 337.9l-4.6-4.4c-.4-.4-.5-1.1-.1-1.6s1-.5 1.5-.1l4.6 4.4-1.4 1.7zM22.1 349.8H16c-.6 0-1 .5-1 1.1s.5 1.1 1 1.1h6.1v-2.2z" class="st16"/>
    </g>
    <g>
      <ellipse cx="229.5" cy="168.1" class="st4" rx="23.5" ry="25.4"/>
      <ellipse cx="229" cy="148.5" class="st17" rx="1.2" ry="1.3"/>
      <ellipse cx="229" cy="188.3" class="st17" rx="1.2" ry="1.3"/>
      <ellipse cx="210.9" cy="167.7" class="st17" rx="1.2" ry="1.3"/>
      <ellipse cx="247.7" cy="167.7" class="st17" rx="1.2" ry="1.3"/>
      <ellipse cx="229.5" cy="168.2" fill="#FFA100" stroke="#FFF" stroke-miterlimit="10" rx="2.8" ry="3"/>
      <path d="M230.3 169.2c0 .5-.4 1-.9 1s-.9-.4-.9-1v-13.6c0-.5.4-1 .9-1s.9.4.9 1v13.6z" class="st19"/>
      <path d="M217.8 169.3c-.5 0-.9-.5-.9-1.1 0-.6.4-1.1.9-1.1h12.6c.5 0 .9.5.9 1.1 0 .6-.4 1.1-.9 1.1h-12.6z" class="st19"/>
    </g>
    <g>
      <path d="M75.8 175.5c-1.1.7-2.4.3-3.1-.9-.6-1.2-.3-2.6.8-3.3l18.1-11.4c1.1-.7 2.4-.3 3.1.9.6 1.2.3 2.6-.8 3.3l-18.1 11.4z" class="st4"/>
      <path d="M114.1 158.1c-1.3 6.9-7.5 11.4-13.8 10-6.4-1.4-10.5-8.1-9.3-14.9 1.3-6.9 7.5-11.4 13.8-10 6.5 1.3 10.6 8 9.3 14.9z" class="st4"/>
      <path d="M111.1 157.5c-.9 5.1-5.5 8.4-10.2 7.4s-7.8-5.9-6.8-11c.9-5.1 5.5-8.4 10.2-7.4 4.7.9 7.7 5.9 6.8 11z" class="st12"/>
    </g>
    <g class="rocket">
      <path d="M385.7 187.6s-14.2 2-25.5 15.3-6.7 17.3-5.3 17.3c1.4.1 13.6-2.2 13.6-2.2l17.2-30.4zM414.7 214.1s.6 15.4-9.7 29.7c-10.3 14.3-14.6 10.1-14.9 8.6s-.3-14.9-.3-14.9l24.9-23.4z" class="st4"/>
      <path d="M428 165.2s-26 .2-47.8 27.8-7.8 42.7-7.8 42.7 16 12.5 37.8-15.1 17.8-55.4 17.8-55.4z" class="st4"/>
      <path d="M410.6 201.5c-3.2 4-8.7 4.5-12.4 1.1-3.7-3.4-4.2-9.4-1-13.5 3.2-4 8.7-4.5 12.4-1.1 3.8 3.5 4.2 9.5 1 13.5zM426.7 185.9c2.5-12.1 1.3-20.5 1.3-20.5s-7.8.1-18.5 4.7c.9 4.1 3 8 6.2 10.9 3.2 3 7.1 4.6 11 4.9zM379.6 237.6l-4.9-4.5-4.9-4.5s-10.3 2.3-13.1 15.7c-1.9 9.2-.3 12.2-.3 12.2s3 1.2 11.1-2.4c11.7-5.1 12.1-16.5 12.1-16.5z" class="st4"/>
      <path d="M390.1 213.6l-.5-.5c-2.6-2.6-6.3 2.4-15.3 15.3-8.8 12.6-6.9 13.5-6.8 13.6 0 .1 1.3 1.9 11.2-9.6 10.2-11.7 14.2-16.4 11.4-18.8z" class="st4"/>
    </g>
    <g class="gears">
      <path d="M47.3 269.2c0 .3-.2.7-.6.8l-3.7.6c-.2.7-.5 1.3-.8 2 .7 1.1 1.4 2 2.1 3 .1.2.2.3.2.5s-.1.3-.2.5c-.5.7-3.2 3.8-3.8 3.8-.2 0-.4-.1-.5-.2l-2.7-2.3c-.6.3-1.2.6-1.8.8-.1 1.3-.3 2.7-.6 4-.1.3-.4.6-.7.6h-4.4c-.4 0-.7-.3-.7-.6l-.6-4c-.6-.2-1.2-.5-1.8-.8l-2.8 2.3c-.1.1-.3.2-.5.2s-.4-.1-.5-.2c-1.1-1-2.4-2.4-3.3-3.6-.1-.2-.1-.3-.1-.5s.1-.3.2-.5c.7-1 1.4-1.9 2.1-2.9-.3-.7-.6-1.4-.8-2.1l-3.6-.6c-.3-.1-.6-.4-.6-.8v-4.8c0-.3.2-.7.5-.8l3.7-.6c.2-.7.5-1.3.8-2l-2.1-3c-.1-.1-.2-.3-.2-.5s.1-.3.2-.5c.5-.7 3.2-3.8 3.8-3.8.2 0 .4.1.5.2l2.7 2.3c.6-.3 1.2-.6 1.8-.8.1-1.3.3-2.7.6-4 .1-.3.4-.6.7-.6h4.4c.4 0 .7.3.7.6l.6 4c.6.2 1.2.5 1.8.8l2.8-2.3c.1-.1.3-.2.5-.2s.4.1.5.2c1.1 1.1 2.4 2.4 3.3 3.7.1.1.1.3.1.5s-.1.3-.2.5c-.7 1-1.4 1.9-2.1 2.9.3.7.6 1.4.8 2.1l3.6.6c.3.1.6.4.6.8v4.7h.1zM32 261.3c-2.8 0-5.1 2.5-5.1 5.5s2.3 5.5 5.1 5.5 5.1-2.5 5.1-5.5-2.3-5.5-5.1-5.5zM75 234.1c0 .4-.3.8-.6.9l-4.3.7c-.3.8-.5 1.6-.9 2.3.8 1.2 1.6 2.3 2.5 3.5.1.2.2.4.2.6s-.1.4-.2.6c-.6.8-3.7 4.5-4.5 4.5-.2 0-.4-.1-.6-.2l-3.2-2.7c-.7.4-1.4.7-2.1.9-.2 1.5-.3 3.2-.7 4.7-.1.4-.4.7-.8.7h-5.1c-.4 0-.8-.3-.8-.8l-.6-4.6c-.7-.2-1.4-.6-2.1-.9l-3.3 2.7c-.2.2-.4.2-.6.2-.2 0-.4-.1-.6-.3-1.2-1.2-2.9-2.8-3.8-4.2-.1-.2-.2-.4-.2-.6 0-.2.1-.4.2-.6.8-1.2 1.6-2.3 2.4-3.4-.4-.8-.7-1.6-.9-2.5l-4.2-.7c-.4-.1-.7-.5-.7-.9v-5.6c0-.4.3-.8.6-.9l4.3-.7c.2-.8.5-1.6.9-2.3-.8-1.2-1.6-2.3-2.5-3.5-.1-.2-.2-.4-.2-.6 0-.2.1-.4.2-.6.6-.8 3.7-4.5 4.5-4.5.2 0 .4.1.6.2l3.2 2.7c.7-.4 1.4-.7 2.1-.9.2-1.5.3-3.2.7-4.7.1-.4.4-.7.8-.7h5.1c.4 0 .8.3.8.8l.7 4.6c.7.2 1.4.6 2.1.9l3.3-2.7c.1-.2.3-.2.6-.2.2 0 .4.1.6.2 1.2 1.2 2.9 2.8 3.8 4.3.1.2.2.4.2.6 0 .2-.1.4-.2.6-.8 1.2-1.6 2.3-2.4 3.4.4.8.7 1.6.9 2.5l4.2.7c.4.1.7.5.7.9l-.1 5.6zm-17.8-9.2c-3.3 0-5.9 2.9-5.9 6.4s2.7 6.4 5.9 6.4c3.3 0 5.9-2.9 5.9-6.4 0-3.6-2.6-6.4-5.9-6.4z" class="st4"/>
    </g>
  </g>
</svg>
