<?xml version="1.0" encoding="utf-8"?>
<!-- Generator: Adobe Illustrator 19.2.1, SVG Export Plug-In . SVG Version: 6.00 Build 0)  -->
<svg version="1.1" xmlns="http://www.w3.org/2000/svg" xmlns:xlink="http://www.w3.org/1999/xlink" x="0px" y="0px"
	 viewBox="0 0 500 500" enable-background="new 0 0 500 500" xml:space="preserve">
<g id="BACKGROUND">
	<g>
		<defs>
			<rect id="SVGID_1_" x="638.7" width="750" height="500"/>
		</defs>
		<clipPath id="SVGID_2_">
			<use xlink:href="#SVGID_1_"  overflow="visible"/>
		</clipPath>
		<rect x="638.7" clip-path="url(#SVGID_2_)" fill="#FFFFFF" width="750" height="500"/>
		<rect x="638.7" clip-path="url(#SVGID_2_)" fill="none" width="750" height="500"/>
		<polygon clip-path="url(#SVGID_2_)" fill="#97A1A3" points="616.2,471.5 928.2,324.8 928.2,232.9 867,195.7 867,138.5 607.2,73.9 
					"/>
		<path clip-path="url(#SVGID_2_)" fill="#6D6F6E" d="M987,330.3c0,0,24-15.2,58.3-15.3c34.3-0.1,203.7,37.3,203.7,37.3
			s113.9,34.9,159.9,41.8v113.6h-329.3L987,330.3z"/>
		<rect x="1136.9" y="469" clip-path="url(#SVGID_2_)" fill="#9C9583" width="129.2" height="6.4"/>
		<rect x="1118.9" y="453.6" clip-path="url(#SVGID_2_)" fill="#9C9583" width="129.2" height="6.4"/>
		<rect x="1102.1" y="437.5" clip-path="url(#SVGID_2_)" fill="#9C9583" width="119.9" height="7"/>
		<rect x="1092.1" y="421.7" clip-path="url(#SVGID_2_)" fill="#9C9583" width="111.3" height="6.1"/>
		<rect x="1155.1" y="489.5" clip-path="url(#SVGID_2_)" fill="#9C9583" width="136.8" height="7"/>
		<polygon clip-path="url(#SVGID_2_)" fill="#9C9583" points="1417.3,402.3 1313.9,402.3 1310.5,399.6 1413.9,399.6 		"/>
		<polygon clip-path="url(#SVGID_2_)" fill="#9C9583" points="1394.6,395.7 1291.2,395.7 1287.8,392.9 1391.2,392.9 		"/>
		<polygon clip-path="url(#SVGID_2_)" fill="#9C9583" points="1365.4,389 1269.6,389 1265.8,386 1361.7,386 		"/>
		<polygon clip-path="url(#SVGID_2_)" fill="#9C9583" points="1449.2,411.4 1339.7,411.4 1336,408.4 1445.4,408.4 		"/>
		<polygon clip-path="url(#SVGID_2_)" fill="#9C9583" points="1316.3,372.6 1212.9,372.6 1209.5,369.8 1312.9,369.8 		"/>
		<polygon clip-path="url(#SVGID_2_)" fill="#9C9583" points="1293.6,365.9 1190.2,365.9 1186.8,363.2 1290.2,363.2 		"/>
		<polygon clip-path="url(#SVGID_2_)" fill="#9C9583" points="1264.4,359.3 1168.6,359.3 1164.8,356.3 1260.7,356.3 		"/>
		<polygon clip-path="url(#SVGID_2_)" fill="#9C9583" points="1348.2,381.7 1238.7,381.7 1235,378.7 1344.4,378.7 		"/>
		<path clip-path="url(#SVGID_2_)" fill="#B4B6B1" d="M1253.4,309c31.4,0.3,141.6,6.1,141.6,6.1l-1.3,41.9
			c0,0-128.7-21.7-145.4-26.7S1238.1,308.8,1253.4,309z"/>
		<path clip-path="url(#SVGID_2_)" fill="#FFFFFF" d="M1393.7,352.2c0,0-124.1-22.1-137.4-26.9s1.1,23.2,1.1,23.2l142.5,37.5
			L1393.7,352.2z"/>
		<path clip-path="url(#SVGID_2_)" fill="#87969D" d="M1393.7,357c0,0-123.1-23.2-136.3-27.9s0,24.3,0,24.3l142.5,37.5L1393.7,357z"
			/>
		<g clip-path="url(#SVGID_2_)">
			<polygon fill="#3A322F" points="1187.3,363.7 1177.9,350.1 1420.5,437.2 1421.3,450.7 			"/>
			<polygon fill="#211A14" points="1171.2,351.5 1180,351.5 1468,454.8 1459.2,454.8 			"/>
			<polygon fill="#51585E" points="1159.8,344.2 1169.4,343.3 1457.4,446.6 1447.8,447.5 			"/>
		</g>
		<g clip-path="url(#SVGID_2_)">
			<polygon fill="#3A322F" points="1236.6,357.9 1228.6,347.4 1423.8,399.7 1431.3,409.7 			"/>
			<polygon fill="#211A14" points="1202.7,344.1 1221,344.1 1438.6,401 1419.8,401 			"/>
			<polygon fill="#51585E" points="1190.9,336.8 1199.7,336.8 1417.8,393.8 1406,394.2 			"/>
		</g>
		<polygon clip-path="url(#SVGID_2_)" fill="#737878" points="1030.9,160.8 1175.7,-148.7 1175.7,-168.7 892.6,-168.7 622.7,-5.7 
			622.7,130.3 		"/>
		<g clip-path="url(#SVGID_2_)">
			<polygon fill="#3A322F" points="1081.3,417.4 1085.7,406.9 1171,510.2 1164.2,526.4 			"/>
			<polygon fill="#211A14" points="1079.7,408.3 1085.7,408.3 1171,511.6 1165,511.6 			"/>
			<polygon fill="#51585E" points="1079.7,401 1085.7,401 1171,504.3 1165,504.3 			"/>
		</g>
		<g clip-path="url(#SVGID_2_)">
			<polygon fill="#3A322F" points="1176.9,422.1 1181.3,411.6 1329.8,510.2 1323.1,526.4 			"/>
			<polygon fill="#211A14" points="1166.7,408.3 1179.2,408.3 1338.7,511.6 1325.9,511.6 			"/>
			<polygon fill="#51585E" points="1165.5,401 1171.5,401 1331.3,504.3 1325.3,504.3 			"/>
		</g>
		<g clip-path="url(#SVGID_2_)">
			<path fill="#B4B6B1" d="M1007.5,323c2.8-0.5,11.9-0.3,16.5-0.1v-7.8c0,0-33.1,2.3-68.8,4.3c-60.2,3.4-101,18.5-101,18.5
				l-220.4,108v58.5h454.9c0,0-84.5-165-88.5-173.5C997.2,324.5,1003.6,323.7,1007.5,323z"/>
			<path fill="#87969D" d="M1009.5,347.8c0,0-3-8.2,19.5-7.3l-12.3-16.4c0,0-18.7-2.3-14.2,6
				C1008.3,341.1,1009.5,347.8,1009.5,347.8z"/>
			<path fill="#FFFFFF" d="M1003.7,329.3c-4.2-7.3,20.3-4.3,20.3-4.3v-2.2c-4.6-0.2-13.7-0.4-16.5,0.1c-3.9,0.7-10.3,1.5-7.3,7.8
				c4,8.5,88.5,173.5,88.5,173.5h16.4L1003.7,329.3z"/>
		</g>
		<g opacity="0.4" clip-path="url(#SVGID_2_)">
			<path fill="#606060" d="M1128.9,342.6c-1.7-0.1-3.5-0.1-5.5-0.1c-20.1-0.2-42.4-5.4-62.4-2.2c-8.7,1.4-38.9-6.9-38.9,6.4
				c-0.5,4.5,35.7,60.5,48.1,77.6c3.1,4.2,6.3,8.5,10.8,11c6,3.3,136.2,5,150.5,1.1c1.7-0.5,3.6-1.2,4.6-2.7c1.6-2.6-0.4-6-2.4-8.3
				c-12.2-14.1-62.1-55.4-72.4-64.7C1152.2,352.5,1142,343.1,1128.9,342.6z"/>
		</g>
		<g clip-path="url(#SVGID_2_)">
			<g>
				<polygon fill="#35393D" points="1081.4,417.9 1054.3,378 1009.3,319.7 1009.3,317 1057.1,363.3 				"/>
				<g>
					<polygon fill="#FE3339" points="1245.9,172.3 1173.6,160.8 1143.6,160.8 1071.4,172.3 1057.1,207.8 1057.1,367.8 1260.1,367.8 
						1260.1,207.8 					"/>
					<polygon fill="#FFFFFF" points="1061.2,314.1 1061.2,207.8 1059.1,202.8 1057.1,207.8 1057.1,314.1 1057.1,320 1057.1,325.9 
						1102.1,325.9 1102.1,314.1 					"/>
					<polygon fill="#FFFFFF" points="1255.5,314.1 1255.5,207.8 1257.6,202.8 1259.6,207.8 1259.6,314.1 1259.6,320 1259.6,325.9 
						1214.6,325.9 1214.6,314.1 					"/>
					<g>
						<polygon fill="#36404A" points="1102.1,367.8 1143.6,420.8 1173.6,420.8 1183.8,420.4 1217,367.8 						"/>
						<polygon fill="#35393D" points="1057.1,367.8 1081.4,417.9 1143.6,420.8 1102.1,367.8 						"/>
						<polygon fill="#51585E" points="1260.1,367.8 1217,367.8 1183.8,420.4 1235.9,417.9 						"/>
					</g>
					<rect x="1057.1" y="336.8" fill="#850913" width="203" height="31"/>
					<rect x="1057.1" y="363.3" fill="#36404A" width="203" height="4.5"/>
					<rect x="1105" y="360.3" fill="#850913" width="107.1" height="7.3"/>
					<g>
						<rect x="1133.7" y="346.8" fill="#121E2A" width="49.8" height="19.4"/>
						<g>
							<rect x="1139.4" y="347.9" fill="#3C4A53" width="5.6" height="17.1"/>
							<rect x="1172.2" y="347.9" fill="#3C4A53" width="5.6" height="17.1"/>
						</g>
						<rect x="1115.4" y="341.4" fill="#FE3339" width="86.4" height="5.3"/>
						<rect x="1115.4" y="366.2" fill="#FE3339" width="86.4" height="2.8"/>
						<rect x="1150.5" y="351.9" fill="#3C4A53" width="16.2" height="7.5"/>
					</g>
					<path fill="#445464" d="M1236.1,299.7h-155c-9.1,0-16.5-7.4-16.5-16.5v-71c0-9.1,7.4-16.5,16.5-16.5h155
						c9.1,0,16.5,7.4,16.5,16.5v71C1252.6,292.3,1245.2,299.7,1236.1,299.7z"/>
					<g>
						<g>
							<path fill="#33C0D3" d="M1152.5,223.8h-36.3c-15.7,8-31.2,16.4-46.6,25.1v24.7c0,4.9,3.9,8.8,8.8,8.8h23.5
								c16.6-10.4,33.5-20,50.7-29.2V223.8z"/>
							<path fill="#73D8E0" d="M1152.5,253.1c-17.2,9.2-34.1,18.9-50.7,29.2h50.7V253.1z"/>
							<path fill="#73D8E0" d="M1069.6,223.8v25.1c15.4-8.7,30.9-17.1,46.6-25.1H1069.6z"/>
							<path fill="#73D8E0" d="M1152.5,206v-5.6h-74.1c-4.9,0-8.8,3.9-8.8,8.8v7.8h60.2C1137.3,213.3,1144.9,209.6,1152.5,206z"/>
							<path fill="#33C0D3" d="M1152.5,206c-7.6,3.6-15.2,7.2-22.7,10.9h22.7V206z"/>
						</g>
						<g>
							<path fill="#33C0D3" d="M1164.7,223.8v22.9c15.4-8,30.9-15.6,46.6-22.9H1164.7z"/>
							<path fill="#73D8E0" d="M1247.6,223.8h-36.3c-15.7,7.4-31.2,15-46.6,22.9v35.6h19.2c20.5-12,42-22.1,63.7-31.7V223.8z"/>
							<path fill="#33C0D3" d="M1183.9,282.3h54.9c4.9,0,8.8-3.9,8.8-8.8v-22.9C1225.9,260.2,1204.4,270.3,1183.9,282.3z"/>
							<path fill="#33C0D3" d="M1164.7,200.4L1164.7,200.4C1164.7,200.4,1164.7,200.4,1164.7,200.4L1164.7,200.4z"/>
							<path fill="#33C0D3" d="M1238.8,200.4h-74.1c0,0,0,0,0,0V217h61.4c7.1-3.3,14.2-6.5,21.4-9.7
								C1246.6,203.4,1243,200.4,1238.8,200.4z"/>
							<path fill="#73D8E0" d="M1226.1,217h21.6v-7.8c0-0.6-0.1-1.3-0.2-1.9C1240.3,210.5,1233.2,213.7,1226.1,217z"/>
						</g>
					</g>
					<path fill="#DDE8EE" d="M1168.6,189.8h-20c-2.2,0-4-1.8-4-4V177c0-2.2,1.8-4,4-4h20c2.2,0,4,1.8,4,4v8.7
						C1172.6,188,1170.8,189.8,1168.6,189.8z"/>
					<g>
						<path fill="#3C4A53" d="M1108.9,371.7h-33.6c-2.7,0-4.9-2.2-4.9-4.9V363c0-11.4,9.2-20.6,20.6-20.6h2
							c11.4,0,20.6,9.2,20.6,20.6v3.8C1113.8,369.5,1111.6,371.7,1108.9,371.7z"/>
						<path fill="#3C4A53" d="M1241.9,371.7h-33.6c-2.7,0-4.9-2.2-4.9-4.9V363c0-11.4,9.2-20.6,20.6-20.6h2
							c11.4,0,20.6,9.2,20.6,20.6v3.8C1246.7,369.5,1244.5,371.7,1241.9,371.7z"/>
					</g>
				</g>
				<polygon fill="#760913" points="1010.3,317.9 1057.1,363.3 1057.1,207.8 1010.3,241.5 				"/>
				<polygon fill="#9E2222" points="1010.3,241.5 1018.1,224.8 1071.4,172.3 1057.1,207.8 				"/>
			</g>
			<g>
				<path fill="#33C0D3" d="M1024,258.8c-2.3,2.3-4.5,4.7-6.7,7.1v16.9c2.2-1.8,4.4-3.6,6.7-5.4V258.8z"/>
				<path fill="#07A1AD" d="M1017.3,282.8v0.2l6.7,1.7v-7.2C1021.7,279.2,1019.5,281,1017.3,282.8z"/>
				<path fill="#07A1AD" d="M1024,242.6l-6.7,4v19.3c2.2-2.4,4.4-4.8,6.7-7.1V242.6z"/>
				<path fill="#07A1AD" d="M1015.5,247.7l-3.8,2.3v22.3c1.3-1.5,2.5-2.9,3.8-4.4V247.7z"/>
				<path fill="#33C0D3" d="M1015.5,267.9c-1.3,1.4-2.6,2.9-3.8,4.4v9.3l3.8,1V267.9z"/>
				<path fill="#33C0D3" d="M1036,246.9c-3.4,3.3-6.8,6.6-10.2,9.9V276c3.3-2.6,6.7-5.1,10.2-7.5V246.9z"/>
				<path fill="#07A1AD" d="M1025.8,276v9.1l10.2,2.5v-19.2C1032.6,271,1029.2,273.5,1025.8,276z"/>
				<path fill="#07A1AD" d="M1036,235.4l-10.2,6.1v15.4c3.3-3.4,6.7-6.7,10.2-9.9V235.4z"/>
				<path fill="#07A1AD" d="M1051.6,226.1l-13.8,8.2v10.9c4.5-4.2,9.1-8.3,13.8-12.4V226.1z"/>
				<path fill="#33C0D3" d="M1051.6,232.9c-4.7,4.1-9.2,8.2-13.8,12.4v22c4.5-3.2,9.1-6.3,13.8-9.3V232.9z"/>
				<path fill="#07A1AD" d="M1037.8,267.2v20.9l13.8,3.4v-33.7C1047,260.9,1042.4,264,1037.8,267.2z"/>
			</g>
		</g>
		<path clip-path="url(#SVGID_2_)" fill="#452B17" d="M846.5,372.5v-17.9h-9.8c0,0-2.3-84.6,40.7-132.1s79.4-64.6,137.6-64.6v-7.2
			h-75.9c0,0-50.1,19.3-82.6,64.3c-36.7,50.9-42.5,111.1-42.5,141h-8.8v16.4H846.5z"/>
		<path clip-path="url(#SVGID_2_)" fill="#53341E" d="M832.8,377.3v-19.2h-10.6c0,0-2.5-91.1,43.8-142.3
			c46.2-51.2,95.3-69.5,158-69.5v-7.8h-91.6c0,0-53.9,20.8-88.9,69.2c-39.5,54.8-45.8,119.7-45.8,151.9h-9.4v17.7H832.8z"/>
		<path clip-path="url(#SVGID_2_)" fill="#5E3A22" d="M815.2,394.6v-22h-12.1c0,0-2.8-104.1,50-162.6c52.8-58.5,109-79.5,180.5-79.5
			v-8.9H929c0,0-61.6,23.7-101.6,79.1c-45.1,62.6-52.3,136.8-52.3,173.5h-10.8v20.2H815.2z"/>
		<path clip-path="url(#SVGID_2_)" fill="#6C442A" d="M792,417v-26.4h-14.5c0,0-3.4-125.1,60.1-195.3
			C901,125,968.4,99.8,1054.4,99.8V89.1H928.6c0,0-74,28.5-122.1,95.1c-54.2,75.2-62.9,164.3-62.9,208.5h-12.9V417H792z"/>
		<path clip-path="url(#SVGID_2_)" fill="#734B31" d="M762.6,435.6V405h-16.8c0,0-3.9-144.9,69.6-226.3S967.1,68,1066.8,68V55.7H921
			c0,0-85.8,33-141.4,110.2c-62.8,87.1-72.8,190.4-72.8,241.6h-15v28.2H762.6z"/>
		<path clip-path="url(#SVGID_2_)" fill="#7E5235" d="M722.4,461.3v-36.1h-19.9c0,0-4.6-171,82.2-267.1s179-130.6,296.6-130.6V12.9
			h-172c0,0-101.3,39-166.9,130c-74.2,102.8-86,224.7-86,285.1h-17.7v33.3H722.4z"/>
		<path clip-path="url(#SVGID_2_)" fill="#88623B" d="M666.9,492.1v-42.9h-23.6c0,0-5.5-202.9,97.5-317S963.2-22.6,1102.8-22.6V-40
			h-214c0,0-120.2,46.2-198.1,154.3c-88,122-102,266.7-102,338.3h-21v39.5H666.9z"/>
		<path clip-path="url(#SVGID_2_)" fill="#926C47" d="M567.2,631.9v-65.4h-36c0,0-8.4-309.6,148.8-483.5
			c157.2-174,305.1-236.4,518-236.4v-26.4H905.6c0,0-183.3,70.5-302.2,235.4C469.2,241.7,447.8,462.4,447.8,571.7h-32v60.2H567.2z"
			/>
		<polygon clip-path="url(#SVGID_2_)" fill="#51585E" points="1030.9,160.8 1051.6,147 1198,-153.4 1175.7,-153.1 		"/>
		<polygon clip-path="url(#SVGID_2_)" fill="#B8BDC1" points="1308.6,314.6 1308.6,142.6 1388.7,94.3 1388.7,328.7 		"/>
		<g clip-path="url(#SVGID_2_)">
			<g>
				<path fill="#FFFFFF" d="M1104.8,329.3h-25.6c-1.2,0-2.2-1-2.2-2.2v-14.3c0-1.2,1-2.2,2.2-2.2h25.6c1.2,0,2.2,1,2.2,2.2v14.3
					C1107,328.4,1106,329.3,1104.8,329.3z"/>
				<path fill="#352B2C" d="M1101.7,327.4h-19.5c-1.2,0-2.2-1-2.2-2.2v-10.5c0-1.2,1-2.2,2.2-2.2h19.5c1.2,0,2.2,1,2.2,2.2v10.5
					C1103.9,326.4,1103,327.4,1101.7,327.4z"/>
				<circle fill="#F4CD51" cx="1096.2" cy="320" r="5.9"/>
				<circle fill="#B0B4B7" cx="1085.4" cy="320" r="2.9"/>
			</g>
			<g>
				<path fill="#FFFFFF" d="M1212.4,329.3h25.6c1.2,0,2.2-1,2.2-2.2v-14.3c0-1.2-1-2.2-2.2-2.2h-25.6c-1.2,0-2.2,1-2.2,2.2v14.3
					C1210.2,328.4,1211.2,329.3,1212.4,329.3z"/>
				<path fill="#352B2C" d="M1215.5,327.4h19.5c1.2,0,2.2-1,2.2-2.2v-10.5c0-1.2-1-2.2-2.2-2.2h-19.5c-1.2,0-2.2,1-2.2,2.2v10.5
					C1213.3,326.4,1214.3,327.4,1215.5,327.4z"/>
				<circle fill="#F4CD51" cx="1221" cy="320" r="5.9"/>
				<circle fill="#B0B4B7" cx="1231.8" cy="320" r="2.9"/>
			</g>
		</g>
		<polygon clip-path="url(#SVGID_2_)" fill="#51585E" points="1058.8,203.3 1011.9,238 1010.3,241.5 1057.1,207.8 		"/>
	</g>
	<g>
		<defs>
			<rect id="SVGID_3_" width="500" height="500"/>
		</defs>
		<clipPath id="SVGID_4_">
			<use xlink:href="#SVGID_3_"  overflow="visible"/>
		</clipPath>
		<rect x="-165.1" clip-path="url(#SVGID_4_)" fill="#FFFFFF" width="750" height="500"/>
		<rect x="-165.1" clip-path="url(#SVGID_4_)" fill="none" width="750" height="500"/>
		<polygon clip-path="url(#SVGID_4_)" fill="#97A1A3" points="-187.6,471.5 124.4,324.8 124.4,232.9 63.2,195.7 63.2,138.5 
			-196.6,73.9 		"/>
		<path clip-path="url(#SVGID_4_)" fill="#6D6F6E" d="M183.1,330.3c0,0,24-15.2,58.3-15.3c34.3-0.1,203.7,37.3,203.7,37.3
			s113.9,34.9,159.9,41.8v113.6H275.8L183.1,330.3z"/>
		<rect x="333.1" y="469" clip-path="url(#SVGID_4_)" fill="#9C9583" width="129.2" height="6.4"/>
		<rect x="315" y="453.6" clip-path="url(#SVGID_4_)" fill="#9C9583" width="129.2" height="6.4"/>
		<rect x="298.2" y="437.5" clip-path="url(#SVGID_4_)" fill="#9C9583" width="119.9" height="7"/>
		<rect x="288.3" y="421.7" clip-path="url(#SVGID_4_)" fill="#9C9583" width="111.3" height="6.1"/>
		<rect x="351.2" y="489.5" clip-path="url(#SVGID_4_)" fill="#9C9583" width="136.8" height="7"/>
		<polygon clip-path="url(#SVGID_4_)" fill="#9C9583" points="613.4,402.3 510,402.3 506.6,399.6 610,399.6 		"/>
		<polygon clip-path="url(#SVGID_4_)" fill="#9C9583" points="590.7,395.7 487.4,395.7 484,392.9 587.3,392.9 		"/>
		<polygon clip-path="url(#SVGID_4_)" fill="#9C9583" points="561.6,389 465.7,389 462,386 557.8,386 		"/>
		<polygon clip-path="url(#SVGID_4_)" fill="#9C9583" points="645.3,411.4 535.9,411.4 532.1,408.4 641.6,408.4 		"/>
		<polygon clip-path="url(#SVGID_4_)" fill="#9C9583" points="512.4,372.6 409,372.6 405.6,369.8 509,369.8 		"/>
		<polygon clip-path="url(#SVGID_4_)" fill="#9C9583" points="489.7,365.9 386.4,365.9 383,363.2 486.3,363.2 		"/>
		<polygon clip-path="url(#SVGID_4_)" fill="#9C9583" points="460.6,359.3 364.7,359.3 361,356.3 456.8,356.3 		"/>
		<polygon clip-path="url(#SVGID_4_)" fill="#9C9583" points="544.3,381.7 434.9,381.7 431.1,378.7 540.6,378.7 		"/>
		<path clip-path="url(#SVGID_4_)" fill="#B4B6B1" d="M449.5,309c31.4,0.3,141.6,6.1,141.6,6.1l-1.3,41.9c0,0-128.7-21.7-145.4-26.7
			S434.3,308.8,449.5,309z"/>
		<path clip-path="url(#SVGID_4_)" fill="#FFFFFF" d="M589.9,352.2c0,0-124.1-22.1-137.4-26.9s1.1,23.2,1.1,23.2L596.1,386
			L589.9,352.2z"/>
		<path clip-path="url(#SVGID_4_)" fill="#87969D" d="M589.9,357c0,0-123.1-23.2-136.3-27.9s0,24.3,0,24.3l142.5,37.5L589.9,357z"/>
		<g clip-path="url(#SVGID_4_)">
			<polygon fill="#3A322F" points="383.5,363.7 374,350.1 616.6,437.2 617.5,450.7 			"/>
			<polygon fill="#211A14" points="367.3,351.5 376.1,351.5 664.1,454.8 655.3,454.8 			"/>
			<polygon fill="#51585E" points="355.9,344.2 365.6,343.3 653.6,446.6 643.9,447.5 			"/>
		</g>
		<g clip-path="url(#SVGID_4_)">
			<polygon fill="#3A322F" points="432.7,357.9 424.8,347.4 619.9,399.7 627.4,409.7 			"/>
			<polygon fill="#211A14" points="398.8,344.1 417.1,344.1 634.7,401 616,401 			"/>
			<polygon fill="#51585E" points="387.1,336.8 395.9,336.8 614,393.8 602.1,394.2 			"/>
		</g>
		<polygon clip-path="url(#SVGID_4_)" fill="#737878" points="227.1,160.8 371.8,-148.7 371.8,-168.7 88.8,-168.7 -181.2,-5.7 
			-181.2,130.3 		"/>
		<g clip-path="url(#SVGID_4_)">
			<polygon fill="#3A322F" points="277.4,417.4 281.8,406.9 367.1,510.2 360.4,526.4 			"/>
			<polygon fill="#211A14" points="275.8,408.3 281.8,408.3 367.1,511.6 361.1,511.6 			"/>
			<polygon fill="#51585E" points="275.8,401 281.8,401 367.1,504.3 361.1,504.3 			"/>
		</g>
		<g clip-path="url(#SVGID_4_)">
			<polygon fill="#3A322F" points="373.1,422.1 377.5,411.6 526,510.2 519.2,526.4 			"/>
			<polygon fill="#211A14" points="362.9,408.3 375.3,408.3 534.8,511.6 522.1,511.6 			"/>
			<polygon fill="#51585E" points="361.6,401 367.6,401 527.4,504.3 521.4,504.3 			"/>
		</g>
		<g clip-path="url(#SVGID_4_)">
			<path fill="#B4B6B1" d="M203.6,323c2.8-0.5,11.9-0.3,16.5-0.1v-7.8c0,0-33.1,2.3-68.8,4.3c-60.2,3.4-101,18.5-101,18.5
				l-220.4,108v58.5h454.9c0,0-84.5-165-88.5-173.5C193.3,324.5,199.8,323.7,203.6,323z"/>
			<path fill="#87969D" d="M205.6,347.8c0,0-3-8.2,19.5-7.3l-12.3-16.4c0,0-18.7-2.3-14.2,6C204.4,341.1,205.6,347.8,205.6,347.8z"
				/>
			<path fill="#FFFFFF" d="M199.8,329.3c-4.2-7.3,20.3-4.3,20.3-4.3v-2.2c-4.6-0.2-13.7-0.4-16.5,0.1c-3.9,0.7-10.3,1.5-7.3,7.8
				c4,8.5,88.5,173.5,88.5,173.5h16.4L199.8,329.3z"/>
		</g>
		<g opacity="0.4" clip-path="url(#SVGID_4_)">
			<path fill="#606060" d="M325.1,342.6c-1.7-0.1-3.5-0.1-5.5-0.1c-20.1-0.2-42.4-5.4-62.4-2.2c-8.7,1.4-38.9-6.9-38.9,6.4
				c-0.5,4.5,35.7,60.5,48.1,77.6c3.1,4.2,6.3,8.5,10.8,11c6,3.3,136.2,5,150.5,1.1c1.7-0.5,3.6-1.2,4.6-2.7c1.6-2.6-0.4-6-2.4-8.3
				c-12.2-14.1-62.1-55.4-72.4-64.7C348.3,352.5,338.1,343.1,325.1,342.6z"/>
		</g>
		<g clip-path="url(#SVGID_4_)">
			<g>
				<polygon fill="#35393D" points="277.5,417.9 250.5,378 205.5,319.7 205.5,317 253.3,363.3 				"/>
				<g>
					<polygon fill="#FE3339" points="442,172.3 369.8,160.8 339.8,160.8 267.5,172.3 253.3,207.8 253.3,367.8 456.3,367.8 
						456.3,207.8 					"/>
					<polygon fill="#FFFFFF" points="257.3,314.1 257.3,207.8 255.3,202.8 253.3,207.8 253.3,314.1 253.3,320 253.3,325.9 
						298.2,325.9 298.2,314.1 					"/>
					<polygon fill="#FFFFFF" points="451.7,314.1 451.7,207.8 453.7,202.8 455.7,207.8 455.7,314.1 455.7,320 455.7,325.9 
						410.8,325.9 410.8,314.1 					"/>
					<g>
						<polygon fill="#36404A" points="298.3,367.8 339.8,420.8 369.8,420.8 379.9,420.4 413.2,367.8 						"/>
						<polygon fill="#35393D" points="253.3,367.8 277.5,417.9 339.8,420.8 298.3,367.8 						"/>
						<polygon fill="#51585E" points="456.3,367.8 413.2,367.8 379.9,420.4 432,417.9 						"/>
					</g>
					<rect x="253.3" y="336.8" fill="#850913" width="203" height="31"/>
					<rect x="253.3" y="363.3" fill="#36404A" width="203" height="4.5"/>
					<rect x="301.2" y="360.3" fill="#850913" width="107.1" height="7.3"/>
					<g>
						<rect x="329.9" y="346.8" fill="#121E2A" width="49.8" height="19.4"/>
						<g>
							<rect x="335.6" y="347.9" fill="#3C4A53" width="5.6" height="17.1"/>
							<rect x="368.4" y="347.9" fill="#3C4A53" width="5.6" height="17.1"/>
						</g>
						<rect x="311.5" y="341.4" fill="#FE3339" width="86.4" height="5.3"/>
						<rect x="311.5" y="366.2" fill="#FE3339" width="86.4" height="2.8"/>
						<rect x="346.7" y="351.9" fill="#3C4A53" width="16.2" height="7.5"/>
					</g>
					<path fill="#445464" d="M432.3,299.7h-155c-9.1,0-16.5-7.4-16.5-16.5v-71c0-9.1,7.4-16.5,16.5-16.5h155
						c9.1,0,16.5,7.4,16.5,16.5v71C448.8,292.3,441.4,299.7,432.3,299.7z"/>
					<g>
						<g>
							<path fill="#33C0D3" d="M348.7,223.8h-36.3c-15.7,8-31.2,16.4-46.6,25.1v24.7c0,4.9,3.9,8.8,8.8,8.8H298
								c16.6-10.4,33.5-20,50.7-29.2V223.8z"/>
							<path fill="#73D8E0" d="M348.7,253.1c-17.2,9.2-34.1,18.9-50.7,29.2h50.7V253.1z"/>
							<path fill="#73D8E0" d="M265.8,223.8v25.1c15.4-8.7,30.9-17.1,46.6-25.1H265.8z"/>
							<path fill="#73D8E0" d="M348.7,206v-5.6h-74.1c-4.9,0-8.8,3.9-8.8,8.8v7.8h60.2C333.5,213.3,341,209.6,348.7,206z"/>
							<path fill="#33C0D3" d="M348.7,206c-7.6,3.6-15.2,7.2-22.7,10.9h22.7V206z"/>
						</g>
						<g>
							<path fill="#33C0D3" d="M360.9,223.8v22.9c15.4-8,30.9-15.6,46.6-22.9H360.9z"/>
							<path fill="#73D8E0" d="M443.8,223.8h-36.3c-15.7,7.4-31.2,15-46.6,22.9v35.6H380c20.5-12,42-22.1,63.7-31.7V223.8z"/>
							<path fill="#33C0D3" d="M380,282.3H435c4.9,0,8.8-3.9,8.8-8.8v-22.9C422.1,260.2,400.5,270.3,380,282.3z"/>
							<path fill="#33C0D3" d="M360.9,200.4L360.9,200.4C360.9,200.4,360.9,200.4,360.9,200.4L360.9,200.4z"/>
							<path fill="#33C0D3" d="M435,200.4h-74.1c0,0,0,0,0,0V217h61.4c7.1-3.3,14.2-6.5,21.4-9.7C442.7,203.4,439.2,200.4,435,200.4
								z"/>
							<path fill="#73D8E0" d="M422.2,217h21.6v-7.8c0-0.6-0.1-1.3-0.2-1.9C436.4,210.5,429.3,213.7,422.2,217z"/>
						</g>
					</g>
					<path fill="#DDE8EE" d="M364.8,189.8h-20c-2.2,0-4-1.8-4-4V177c0-2.2,1.8-4,4-4h20c2.2,0,4,1.8,4,4v8.7
						C368.8,188,367,189.8,364.8,189.8z"/>
					<g>
						<path fill="#3C4A53" d="M305.1,371.7h-33.6c-2.7,0-4.9-2.2-4.9-4.9V363c0-11.4,9.2-20.6,20.6-20.6h2
							c11.4,0,20.6,9.2,20.6,20.6v3.8C309.9,369.5,307.8,371.7,305.1,371.7z"/>
						<path fill="#3C4A53" d="M438,371.7h-33.6c-2.7,0-4.9-2.2-4.9-4.9V363c0-11.4,9.2-20.6,20.6-20.6h2c11.4,0,20.6,9.2,20.6,20.6
							v3.8C442.9,369.5,440.7,371.7,438,371.7z"/>
					</g>
				</g>
				<polygon fill="#760913" points="206.4,317.9 253.3,363.3 253.3,207.8 206.4,241.5 				"/>
				<polygon fill="#9E2222" points="206.4,241.5 214.2,224.8 267.5,172.3 253.3,207.8 				"/>
			</g>
			<g>
				<path fill="#33C0D3" d="M220.1,258.8c-2.3,2.3-4.5,4.7-6.7,7.1v16.9c2.2-1.8,4.4-3.6,6.7-5.4V258.8z"/>
				<path fill="#07A1AD" d="M213.5,282.8v0.2l6.7,1.7v-7.2C217.9,279.2,215.7,281,213.5,282.8z"/>
				<path fill="#07A1AD" d="M220.1,242.6l-6.7,4v19.3c2.2-2.4,4.4-4.8,6.7-7.1V242.6z"/>
				<path fill="#07A1AD" d="M211.6,247.7l-3.8,2.3v22.3c1.3-1.5,2.5-2.9,3.8-4.4V247.7z"/>
				<path fill="#33C0D3" d="M211.6,267.9c-1.3,1.4-2.6,2.9-3.8,4.4v9.3l3.8,1V267.9z"/>
				<path fill="#33C0D3" d="M232.1,246.9c-3.4,3.3-6.8,6.6-10.2,9.9V276c3.3-2.6,6.7-5.1,10.2-7.5V246.9z"/>
				<path fill="#07A1AD" d="M222,276v9.1l10.2,2.5v-19.2C228.7,271,225.3,273.5,222,276z"/>
				<path fill="#07A1AD" d="M232.1,235.4l-10.2,6.1v15.4c3.3-3.4,6.7-6.7,10.2-9.9V235.4z"/>
				<path fill="#07A1AD" d="M247.7,226.1l-13.8,8.2v10.9c4.5-4.2,9.1-8.3,13.8-12.4V226.1z"/>
				<path fill="#33C0D3" d="M247.7,232.9c-4.7,4.1-9.2,8.2-13.8,12.4v22c4.5-3.2,9.1-6.3,13.8-9.3V232.9z"/>
				<path fill="#07A1AD" d="M234,267.2v20.9l13.8,3.4v-33.7C243.1,260.9,238.5,264,234,267.2z"/>
			</g>
		</g>
		<path clip-path="url(#SVGID_4_)" fill="#452B17" d="M42.6,372.5v-17.9h-9.8c0,0-2.3-84.6,40.7-132.1s79.4-64.6,137.6-64.6v-7.2
			h-75.9c0,0-50.1,19.3-82.6,64.3C15.8,265.9,10,326.2,10,356H1.2v16.4H42.6z"/>
		<path clip-path="url(#SVGID_4_)" fill="#53341E" d="M29,377.3v-19.2H18.4c0,0-2.5-91.1,43.8-142.3c46.2-51.2,95.3-69.5,158-69.5
			v-7.8h-91.6c0,0-53.9,20.8-88.9,69.2C0.1,262.5-6.2,327.4-6.2,359.6h-9.4v17.7H29z"/>
		<path clip-path="url(#SVGID_4_)" fill="#5E3A22" d="M11.4,394.6v-22H-0.7c0,0-2.8-104.1,50-162.6c52.8-58.5,109-79.5,180.5-79.5
			v-8.9H125.1c0,0-61.6,23.7-101.6,79.1c-45.1,62.6-52.3,136.8-52.3,173.5h-10.8v20.2H11.4z"/>
		<path clip-path="url(#SVGID_4_)" fill="#6C442A" d="M-11.9,417v-26.4h-14.5c0,0-3.4-125.1,60.1-195.3
			C97.2,125,164.6,99.8,250.6,99.8V89.1H124.8c0,0-74,28.5-122.1,95.1c-54.2,75.2-62.9,164.3-62.9,208.5h-12.9V417H-11.9z"/>
		<path clip-path="url(#SVGID_4_)" fill="#734B31" d="M-41.2,435.6V405h-16.8c0,0-3.9-144.9,69.6-226.3S163.3,68,262.9,68V55.7
			H117.2c0,0-85.8,33-141.4,110.2c-62.8,87.1-72.8,190.4-72.8,241.6h-15v28.2H-41.2z"/>
		<path clip-path="url(#SVGID_4_)" fill="#7E5235" d="M-81.4,461.3v-36.1h-19.9c0,0-4.6-171,82.2-267.1
			c86.8-96.1,179-130.6,296.6-130.6V12.9h-172c0,0-101.3,39-166.9,130c-74.2,102.8-86,224.7-86,285.1h-17.7v33.3H-81.4z"/>
		<path clip-path="url(#SVGID_4_)" fill="#88623B" d="M-136.9,492.1v-42.9h-23.6c0,0-5.5-202.9,97.5-317S159.3-22.6,298.9-22.6V-40
			h-214c0,0-120.2,46.2-198.1,154.3c-88,122-102,266.7-102,338.3h-21v39.5H-136.9z"/>
		<path clip-path="url(#SVGID_4_)" fill="#926C47" d="M-236.6,631.9v-65.4h-36c0,0-8.4-309.6,148.8-483.5s305.1-236.4,518-236.4
			v-26.4H101.7c0,0-183.3,70.5-302.2,235.4C-334.7,241.7-356,462.4-356,571.7h-32v60.2H-236.6z"/>
		<polygon clip-path="url(#SVGID_4_)" fill="#51585E" points="227.1,160.8 247.7,147 394.1,-153.4 371.8,-153.1 		"/>
		<polygon clip-path="url(#SVGID_4_)" fill="#B8BDC1" points="504.7,314.6 504.7,142.6 584.9,94.3 584.9,328.7 		"/>
		<g clip-path="url(#SVGID_4_)">
			<g>
				<path fill="#FFFFFF" d="M301,329.3h-25.6c-1.2,0-2.2-1-2.2-2.2v-14.3c0-1.2,1-2.2,2.2-2.2H301c1.2,0,2.2,1,2.2,2.2v14.3
					C303.2,328.4,302.2,329.3,301,329.3z"/>
				<path fill="#352B2C" d="M297.9,327.4h-19.5c-1.2,0-2.2-1-2.2-2.2v-10.5c0-1.2,1-2.2,2.2-2.2h19.5c1.2,0,2.2,1,2.2,2.2v10.5
					C300.1,326.4,299.1,327.4,297.9,327.4z"/>
				<circle fill="#F4CD51" cx="292.4" cy="320" r="5.9"/>
				<circle fill="#B0B4B7" cx="281.6" cy="320" r="2.9"/>
			</g>
			<g>
				<path fill="#FFFFFF" d="M408.5,329.3h25.6c1.2,0,2.2-1,2.2-2.2v-14.3c0-1.2-1-2.2-2.2-2.2h-25.6c-1.2,0-2.2,1-2.2,2.2v14.3
					C406.4,328.4,407.3,329.3,408.5,329.3z"/>
				<path fill="#352B2C" d="M411.6,327.4h19.5c1.2,0,2.2-1,2.2-2.2v-10.5c0-1.2-1-2.2-2.2-2.2h-19.5c-1.2,0-2.2,1-2.2,2.2v10.5
					C409.4,326.4,410.4,327.4,411.6,327.4z"/>
				<circle fill="#F4CD51" cx="417.2" cy="320" r="5.9"/>
				<circle fill="#B0B4B7" cx="428" cy="320" r="2.9"/>
			</g>
		</g>
		<polygon clip-path="url(#SVGID_4_)" fill="#51585E" points="254.9,203.3 208.1,238 206.4,241.5 253.3,207.8 		"/>
	</g>
</g>
<g id="DESIGNED_BY_FREEPIK">
</g>
</svg>
