<?xml version="1.0" encoding="utf-8"?>
<!-- Generator: Adobe Illustrator 19.2.1, SVG Export Plug-In . SVG Version: 6.00 Build 0)  -->
<svg version="1.1" xmlns="http://www.w3.org/2000/svg" xmlns:xlink="http://www.w3.org/1999/xlink" x="0px" y="0px"
	 viewBox="0 0 500 500" enable-background="new 0 0 500 500" xml:space="preserve">
<g id="BACKGROUND">
	<linearGradient id="SVGID_1_" gradientUnits="userSpaceOnUse" x1="0" y1="250" x2="500" y2="250">
		<stop  offset="0" style="stop-color:#6C8CF3"/>
		<stop  offset="1" style="stop-color:#61CBFF"/>
	</linearGradient>
	<rect fill="url(#SVGID_1_)" width="500" height="500"/>
</g>
<g id="OBJECTS">
	<path fill="#CFDDF4" d="M426.2,401.3H39.3c-2.1,0-3.8-1.7-3.8-3.8l0,0c0-2.1,1.7-3.8,3.8-3.8h386.8c2.1,0,3.8,1.7,3.8,3.8l0,0
		C430,399.6,428.3,401.3,426.2,401.3z"/>
	<g>
		<g>
			<path fill="#4836F6" d="M426.7,242.8l-0.7-17.3c5.3,1.5,11,2,16.5,1.1c-0.2,1.2-0.4,2.5-0.7,3.7
				C434.1,228.6,429.9,235.7,426.7,242.8z"/>
			<path fill="#7736F6" d="M441.7,230.3c-1.2,5-3.1,9.9-5.7,14.3l-8.6,14.4l-0.7-16.3C429.9,235.7,434.1,228.6,441.7,230.3z"/>
			<g>
				<linearGradient id="SVGID_2_" gradientUnits="userSpaceOnUse" x1="391.8048" y1="115.986" x2="391.8048" y2="87.8622">
					<stop  offset="0" style="stop-color:#FFFFFF;stop-opacity:0.3"/>
					<stop  offset="1" style="stop-color:#FFFFFF"/>
				</linearGradient>
				<path fill="url(#SVGID_2_)" d="M460.7,114.3c-3.1-4.3-11.8-15.4-18.7-16.9c-8.6-1.8-10.3,9.9-24.3-4.2
					c-11.2-11.3-25.7-2.3-36.1,7.6c-2.7,2.6-6.8,2.9-9.8,0.7c-6.3-4.6-13.7-7.1-19.7-1c-9.6,9.7-10.7,1.7-16.6,2.9
					c-4.7,1-10.6,8.6-12.7,11.5c-0.4,0.5,0.1,1.2,0.8,1.2h36.6h10.5h13.5h21.7h53.6C460.6,116,461.3,115,460.7,114.3z"/>
				<linearGradient id="SVGID_3_" gradientUnits="userSpaceOnUse" x1="337.6888" y1="82.8025" x2="337.6888" y2="63.0033">
					<stop  offset="0" style="stop-color:#FFFFFF;stop-opacity:0.3"/>
					<stop  offset="1" style="stop-color:#FFFFFF"/>
				</linearGradient>
				<path fill="url(#SVGID_3_)" d="M375.4,81.6c-2.2-3.1-8.3-10.9-13.1-11.9c-6-1.3-7.2,7-17-3c-8.7-8.8-20.3,0-27.7,7.6
					c-4.1,2.5-5.2-1.2-8.6-0.5c-3.3,0.7-7.4,6-8.9,8.1c-0.3,0.4,0.1,0.8,0.6,0.8h11.7h14.1h10.6h6.2h31.5
					C375.3,82.8,375.8,82.1,375.4,81.6z"/>
				<linearGradient id="SVGID_4_" gradientUnits="userSpaceOnUse" x1="434.3834" y1="78.6067" x2="434.3834" y2="67.199">
					<stop  offset="0" style="stop-color:#FFFFFF;stop-opacity:0.3"/>
					<stop  offset="1" style="stop-color:#FFFFFF"/>
				</linearGradient>
				<path fill="url(#SVGID_4_)" d="M456.1,77.9c-1.3-1.8-4.8-6.3-7.6-6.9c-3.5-0.7-4.2,4-9.8-1.7c-5-5.1-11.7,0-15.9,4.4
					c-2.4,1.5-3-0.7-5-0.3c-1.9,0.4-4.3,3.5-5.2,4.7c-0.2,0.2,0,0.5,0.3,0.5h6.7h8.1h6.1h3.6h18.1C456,78.6,456.3,78.2,456.1,77.9z"
					/>
			</g>
			<g>
				<linearGradient id="SVGID_5_" gradientUnits="userSpaceOnUse" x1="63.0125" y1="100.9141" x2="63.0125" y2="78.8716">
					<stop  offset="0" style="stop-color:#FFFFFF;stop-opacity:0.3"/>
					<stop  offset="1" style="stop-color:#FFFFFF"/>
				</linearGradient>
				<path fill="url(#SVGID_5_)" d="M117,99.6c-2.5-3.4-9.2-12.1-14.6-13.2c-6.7-1.4-8,7.8-19-3.3c-8.8-8.9-20.1-1.8-28.3,5.9
					c-2.1,2-5.4,2.3-7.7,0.6c-5-3.6-10.8-5.5-15.4-0.8c-7.5,7.6-8.4,1.3-13,2.3c-3.7,0.8-8.3,6.7-10,9c-0.3,0.4,0.1,0.9,0.6,0.9
					h28.7h8.2h10.5h17h42C116.9,100.9,117.5,100.2,117,99.6z"/>
				<linearGradient id="SVGID_6_" gradientUnits="userSpaceOnUse" x1="22.7869" y1="79.5747" x2="22.7869" y2="64.0568">
					<stop  offset="0" style="stop-color:#FFFFFF;stop-opacity:0.3"/>
					<stop  offset="1" style="stop-color:#FFFFFF"/>
				</linearGradient>
				<path fill="url(#SVGID_6_)" d="M45.5,78.6c-1.7-2.4-6.5-8.5-10.3-9.3c-4.7-1-5.6,5.5-13.4-2.3c-6.8-6.9-15.9,0-21.7,6
					C0.1,73,0,73,0,73v6.6h44.8C45.4,79.6,45.8,79,45.5,78.6z"/>
				<linearGradient id="SVGID_7_" gradientUnits="userSpaceOnUse" x1="36.6513" y1="118.6997" x2="36.6513" y2="109.7588">
					<stop  offset="0" style="stop-color:#FFFFFF;stop-opacity:0.3"/>
					<stop  offset="1" style="stop-color:#FFFFFF"/>
				</linearGradient>
				<path fill="url(#SVGID_7_)" d="M53.7,118.1c-1-1.4-3.7-4.9-5.9-5.4c-2.7-0.6-3.3,3.2-7.7-1.3c-3.9-4-9.2,0-12.5,3.4
					c-1.8,1.1-2.4-0.5-3.9-0.2c-1.5,0.3-3.4,2.7-4,3.7c-0.1,0.2,0,0.4,0.3,0.4h5.3h6.3h4.8h2.8h14.2
					C53.6,118.7,53.8,118.4,53.7,118.1z"/>
			</g>
			<g>
				<g>
					<path fill="#F577B6" d="M413.9,265.3h42.6c1.9,0,3.5-1.6,3.5-3.5v-10c0-1.9-1.6-3.5-3.5-3.5h-42.6c-1.9,0-3.5,1.6-3.5,3.5v10
						C410.4,263.7,411.9,265.3,413.9,265.3z"/>
					<path fill="#FFFFFF" d="M446.9,262.1h7.6c1.2,0,2.1-1,2.1-2.1v-6.2c0-1.2-1-2.1-2.1-2.1h-7.6c-1.2,0-2.1,1-2.1,2.1v6.2
						C444.8,261.2,445.7,262.1,446.9,262.1z"/>
					<g>
						<path opacity="0.12" fill="#001D47" d="M417.4,253.9h22c0.5,0,0.9,0.4,0.9,0.9s-0.4,0.9-0.9,0.9h-22c-0.5,0-0.9-0.4-0.9-0.9
							S416.9,253.9,417.4,253.9z"/>
						<path opacity="0.12" fill="#001D47" d="M428.7,257.8h10.7c0.5,0,0.9,0.4,0.9,0.9s-0.4,0.9-0.9,0.9h-10.7
							c-0.5,0-0.9-0.4-0.9-0.9S428.2,257.8,428.7,257.8z"/>
					</g>
				</g>
				<g>
					<path fill="#FFFFFF" d="M413.9,288.9h42.6c1.9,0,3.5-1.6,3.5-3.5v-10c0-1.9-1.6-3.5-3.5-3.5h-42.6c-1.9,0-3.5,1.6-3.5,3.5v10
						C410.4,287.3,411.9,288.9,413.9,288.9z"/>
					<path fill="#E0E9F8" d="M446.9,285.7h7.6c1.2,0,2.1-1,2.1-2.1v-6.2c0-1.2-1-2.1-2.1-2.1h-7.6c-1.2,0-2.1,1-2.1,2.1v6.2
						C444.8,284.8,445.7,285.7,446.9,285.7z"/>
					<g>
						<path opacity="0.12" fill="#001D47" d="M417.4,277.5h22c0.5,0,0.9,0.4,0.9,0.9s-0.4,0.9-0.9,0.9h-22c-0.5,0-0.9-0.4-0.9-0.9
							S416.9,277.5,417.4,277.5z"/>
						<path opacity="0.12" fill="#001D47" d="M428.7,281.4h10.7c0.5,0,0.9,0.4,0.9,0.9s-0.4,0.9-0.9,0.9h-10.7
							c-0.5,0-0.9-0.4-0.9-0.9S428.2,281.4,428.7,281.4z"/>
					</g>
				</g>
				<g>
					<path fill="#7736F6" d="M413.9,312.4h42.6c1.9,0,3.5-1.6,3.5-3.5v-10c0-1.9-1.6-3.5-3.5-3.5h-42.6c-1.9,0-3.5,1.6-3.5,3.5v10
						C410.4,310.9,411.9,312.4,413.9,312.4z"/>
					<path fill="#FFFFFF" d="M446.9,309.3h7.6c1.2,0,2.1-1,2.1-2.1v-6.2c0-1.2-1-2.1-2.1-2.1h-7.6c-1.2,0-2.1,1-2.1,2.1v6.2
						C444.8,308.3,445.7,309.3,446.9,309.3z"/>
					<g>
						<path opacity="0.12" fill="#001D47" d="M417.4,301.1h22c0.5,0,0.9,0.4,0.9,0.9s-0.4,0.9-0.9,0.9h-22c-0.5,0-0.9-0.4-0.9-0.9
							S416.9,301.1,417.4,301.1z"/>
						<path opacity="0.12" fill="#001D47" d="M428.7,305h10.7c0.5,0,0.9,0.4,0.9,0.9s-0.4,0.9-0.9,0.9h-10.7c-0.5,0-0.9-0.4-0.9-0.9
							S428.2,305,428.7,305z"/>
					</g>
				</g>
			</g>
			<path fill="#FF9272" d="M66.2,322.4l17.1,12c1.3,0.9,1.8,2.7,1.2,4.2l0,0c-0.8,1.9-3,2.7-4.9,1.7l-16.6-9L66.2,322.4z"/>
			<path fill="#CEDFE7" d="M422,389.5H78c-4.4,0-8-3.6-8-8V152.8c0-4.4,3.6-8,8-8h344c4.4,0,8,3.6,8,8v228.7
				C430,385.9,426.4,389.5,422,389.5z"/>
			<g>
				<path fill="#FFFFFF" d="M414.6,287.8h-62.4c-1.5,0-2.8-1.2-2.8-2.8v-40c0-1.5,1.2-2.8,2.8-2.8h62.4c1.5,0,2.8,1.2,2.8,2.8v40
					C417.4,286.6,416.1,287.8,414.6,287.8z"/>
				<path fill="#E0E9F8" d="M410.1,280.7h-53.3c-0.9,0-1.7-0.7-1.7-1.7v-11.3c0-0.9,0.7-1.7,1.7-1.7h53.3c0.9,0,1.7,0.7,1.7,1.7
					v11.3C411.7,280,411,280.7,410.1,280.7z"/>
				<g>
					<g>
						<g>
							<circle fill="#C2C9E9" cx="403" cy="248.4" r="1.2"/>
						</g>
						<g>
							<circle fill="#C2C9E9" cx="407.4" cy="248.4" r="1.2"/>
						</g>
						<g>
							<circle fill="#C2C9E9" cx="411.7" cy="248.4" r="1.2"/>
						</g>
					</g>
				</g>
				<g>
					<circle fill="#A4B5E9" cx="360" cy="256.7" r="4.5"/>
					<path fill="#E0E9F8" d="M410.7,259.5h-40.9c-0.4,0-0.7-0.3-0.7-0.7v-4.3c0-0.4,0.3-0.7,0.7-0.7h40.9c0.4,0,0.7,0.3,0.7,0.7v4.3
						C411.4,259.2,411.1,259.5,410.7,259.5z"/>
				</g>
			</g>
			<path fill="#7736F6" d="M430,164.8v-12c0-4.4-3.6-8-8-8H78c-4.4,0-8,3.6-8,8v12H430z"/>
			<linearGradient id="SVGID_8_" gradientUnits="userSpaceOnUse" x1="70" y1="211.7992" x2="430" y2="211.7992">
				<stop  offset="0" style="stop-color:#F577B6"/>
				<stop  offset="1" style="stop-color:#FF8262"/>
			</linearGradient>
			<rect x="70" y="191.3" fill="url(#SVGID_8_)" width="360" height="41"/>
			<path fill="#FFFFFF" d="M400.5,186.3H101.6c-2.2,0-4-1.8-4-4v-8.4c0-2.2,1.8-4,4-4h298.9c2.2,0,4,1.8,4,4v8.4
				C404.5,184.5,402.7,186.3,400.5,186.3z"/>
			<g>
				
					<line fill="none" stroke="#8DAEE6" stroke-width="1.5" stroke-linecap="round" stroke-linejoin="round" stroke-miterlimit="10" x1="423.9" y1="173.1" x2="410.8" y2="173.1"/>
				
					<line fill="none" stroke="#8DAEE6" stroke-width="1.5" stroke-linecap="round" stroke-linejoin="round" stroke-miterlimit="10" x1="423.9" y1="178.1" x2="410.8" y2="178.1"/>
				
					<line fill="none" stroke="#8DAEE6" stroke-width="1.5" stroke-linecap="round" stroke-linejoin="round" stroke-miterlimit="10" x1="423.9" y1="183.1" x2="410.8" y2="183.1"/>
			</g>
			
				<path fill="none" stroke="#8DAEE6" stroke-width="1.5" stroke-linecap="round" stroke-linejoin="round" stroke-miterlimit="10" d="
				M82.9,171.6L77,176c-0.2,0.2-0.3,0.6-0.3,0.9v7.2c0,0.5,0.4,0.9,0.9,0.9H81c0.5,0,0.9-0.4,0.9-0.9v-4.6c0-1,0.7-1.9,1.6-2
				c1.2-0.2,2.2,0.7,2.2,1.9v4.7c0,0.5,0.4,0.9,0.9,0.9H90c0.5,0,0.9-0.4,0.9-0.9v-7.2c0-0.3-0.1-0.6-0.3-0.9l-5.9-4.4
				C84.2,171.2,83.4,171.2,82.9,171.6z"/>
			<g>
				<g>
					
						<circle fill="none" stroke="#E0E9F8" stroke-width="1.5" stroke-linecap="round" stroke-linejoin="round" stroke-miterlimit="10" cx="106" cy="177.8" r="4"/>
					
						<line fill="none" stroke="#E0E9F8" stroke-width="1.5" stroke-linecap="round" stroke-linejoin="round" stroke-miterlimit="10" x1="109.9" y1="182.4" x2="108.6" y2="180.9"/>
				</g>
			</g>
			<g>
				<path fill="#FFFFFF" d="M339.3,219.8H160.8c-1.2,0-2.3-1-2.3-2.3V206c0-1.2,1-2.3,2.3-2.3h178.5c1.2,0,2.3,1,2.3,2.3v11.5
					C341.5,218.8,340.5,219.8,339.3,219.8z"/>
				<path fill="#E0E9F8" d="M339.3,203.8H324v16h15.3c1.2,0,2.3-1,2.3-2.3V206C341.5,204.8,340.5,203.8,339.3,203.8z"/>
				<g>
					<g>
						
							<circle fill="none" stroke="#C2C9E9" stroke-width="1.5" stroke-linecap="round" stroke-linejoin="round" stroke-miterlimit="10" cx="332.8" cy="211.5" r="3.4"/>
						
							<line fill="none" stroke="#C2C9E9" stroke-width="1.5" stroke-linecap="round" stroke-linejoin="round" stroke-miterlimit="10" x1="336.1" y1="215.5" x2="334.9" y2="214.2"/>
					</g>
				</g>
			</g>
			<circle fill="#7736F6" cx="86.4" cy="248.4" r="4.5"/>
			<path fill="#FFFFFF" d="M414.6,377h-62.4c-1.5,0-2.8-1.2-2.8-2.8v-75.2c0-1.5,1.2-2.8,2.8-2.8h62.4c1.5,0,2.8,1.2,2.8,2.8v75.2
				C417.4,375.7,416.1,377,414.6,377z"/>
			<path fill="#A4B5E9" d="M131.8,251.1H96.2c-0.4,0-0.7-0.3-0.7-0.7v-4.3c0-0.4,0.3-0.7,0.7-0.7h35.7c0.4,0,0.7,0.3,0.7,0.7v4.3
				C132.5,250.8,132.2,251.1,131.8,251.1z"/>
			<path fill="#E0E9F8" d="M168.3,180.9h-48.5c-0.4,0-0.7-0.3-0.7-0.7v-4.3c0-0.4,0.3-0.7,0.7-0.7h48.5c0.4,0,0.7,0.3,0.7,0.7v4.3
				C168.9,180.6,168.6,180.9,168.3,180.9z"/>
			<circle fill="#A4B5E9" cx="86.4" cy="261.6" r="4.5"/>
			<path fill="#A4B5E9" d="M131.8,264.4H96.2c-0.4,0-0.7-0.3-0.7-0.7v-4.3c0-0.4,0.3-0.7,0.7-0.7h35.7c0.4,0,0.7,0.3,0.7,0.7v4.3
				C132.5,264.1,132.2,264.4,131.8,264.4z"/>
			<path fill="#F577B6" d="M106.5,277.6h-24c-0.4,0-0.7-0.3-0.7-0.7v-1.5c0-0.4,0.3-0.7,0.7-0.7h24c0.4,0,0.7,0.3,0.7,0.7v1.5
				C107.2,277.3,106.9,277.6,106.5,277.6z"/>
			<circle fill="#FFFFFF" cx="86.4" cy="288.1" r="4.5"/>
			<path fill="#A4B5E9" d="M131.8,290.9H96.2c-0.4,0-0.7-0.3-0.7-0.7v-4.3c0-0.4,0.3-0.7,0.7-0.7h35.7c0.4,0,0.7,0.3,0.7,0.7v4.3
				C132.5,290.6,132.2,290.9,131.8,290.9z"/>
			<circle fill="#A4B5E9" cx="86.4" cy="301.4" r="4.5"/>
			<path fill="#A4B5E9" d="M131.8,304.1H96.2c-0.4,0-0.7-0.3-0.7-0.7v-4.3c0-0.4,0.3-0.7,0.7-0.7h35.7c0.4,0,0.7,0.3,0.7,0.7v4.3
				C132.5,303.8,132.2,304.1,131.8,304.1z"/>
			<circle fill="#A4B5E9" cx="86.4" cy="314.6" r="4.5"/>
			<path fill="#A4B5E9" d="M131.8,317.4H96.2c-0.4,0-0.7-0.3-0.7-0.7v-4.3c0-0.4,0.3-0.7,0.7-0.7h35.7c0.4,0,0.7,0.3,0.7,0.7v4.3
				C132.5,317.1,132.2,317.4,131.8,317.4z"/>
			<circle fill="#FFFFFF" cx="86.4" cy="327.9" r="4.5"/>
			<path fill="#A4B5E9" d="M131.8,330.6H96.2c-0.4,0-0.7-0.3-0.7-0.7v-4.3c0-0.4,0.3-0.7,0.7-0.7h35.7c0.4,0,0.7,0.3,0.7,0.7v4.3
				C132.5,330.3,132.2,330.6,131.8,330.6z"/>
			<path fill="#F577B6" d="M106.5,343.9h-24c-0.4,0-0.7-0.3-0.7-0.7v-1.5c0-0.4,0.3-0.7,0.7-0.7h24c0.4,0,0.7,0.3,0.7,0.7v1.5
				C107.2,343.6,106.9,343.9,106.5,343.9z"/>
			<circle fill="#A4B5E9" cx="86.4" cy="354.4" r="4.5"/>
			<path fill="#A4B5E9" d="M131.8,357.1H96.2c-0.4,0-0.7-0.3-0.7-0.7v-4.3c0-0.4,0.3-0.7,0.7-0.7h35.7c0.4,0,0.7,0.3,0.7,0.7v4.3
				C132.5,356.8,132.2,357.1,131.8,357.1z"/>
			<circle fill="#FFFFFF" cx="86.4" cy="367.6" r="4.5"/>
			<path fill="#A4B5E9" d="M131.8,370.4H96.2c-0.4,0-0.7-0.3-0.7-0.7v-4.3c0-0.4,0.3-0.7,0.7-0.7h35.7c0.4,0,0.7,0.3,0.7,0.7v4.3
				C132.5,370.1,132.2,370.4,131.8,370.4z"/>
			<g>
				<path fill="#FFFFFF" d="M340.3,305.8H146.8c-1.5,0-2.8-1.2-2.8-2.8v-58c0-1.5,1.2-2.8,2.8-2.8h193.5c1.5,0,2.8,1.2,2.8,2.8v58
					C343,304.6,341.8,305.8,340.3,305.8z"/>
				<path fill="#E0E9F8" d="M199.3,254h-48.5c-0.4,0-0.7-0.3-0.7-0.7V249c0-0.4,0.3-0.7,0.7-0.7h48.5c0.4,0,0.7,0.3,0.7,0.7v4.3
					C200,253.7,199.7,254,199.3,254z"/>
				<path fill="#E0E9F8" d="M335.3,299.7H150.8c-0.4,0-0.7-0.3-0.7-0.7v-4.3c0-0.4,0.3-0.7,0.7-0.7h184.5c0.4,0,0.7,0.3,0.7,0.7v4.3
					C336,299.4,335.7,299.7,335.3,299.7z"/>
				<path fill="#E0E9F8" d="M255.3,254h-48.5c-0.4,0-0.7-0.3-0.7-0.7V249c0-0.4,0.3-0.7,0.7-0.7h48.5c0.4,0,0.7,0.3,0.7,0.7v4.3
					C256,253.7,255.7,254,255.3,254z"/>
				<path fill="#E0E9F8" d="M311.3,254h-48.5c-0.4,0-0.7-0.3-0.7-0.7V249c0-0.4,0.3-0.7,0.7-0.7h48.5c0.4,0,0.7,0.3,0.7,0.7v4.3
					C312,253.7,311.7,254,311.3,254z"/>
				<path fill="#CEDFE7" d="M310.7,285.2H151.5c-0.7,0-1.3-0.6-1.3-1.3v-17.6c0-0.7,0.6-1.3,1.3-1.3h159.2c0.7,0,1.3,0.6,1.3,1.3
					v17.6C312,284.6,311.4,285.2,310.7,285.2z"/>
			</g>
			<g>
				<path fill="#FFFFFF" d="M340.3,377H146.8c-1.5,0-2.8-1.2-2.8-2.8v-58c0-1.5,1.2-2.8,2.8-2.8h193.5c1.5,0,2.8,1.2,2.8,2.8v58
					C343,375.7,341.8,377,340.3,377z"/>
				<path fill="#E0E9F8" d="M199.3,325.1h-48.5c-0.4,0-0.7-0.3-0.7-0.7v-4.3c0-0.4,0.3-0.7,0.7-0.7h48.5c0.4,0,0.7,0.3,0.7,0.7v4.3
					C200,324.8,199.7,325.1,199.3,325.1z"/>
				<path fill="#E0E9F8" d="M335.3,370.9H150.8c-0.4,0-0.7-0.3-0.7-0.7v-4.3c0-0.4,0.3-0.7,0.7-0.7h184.5c0.4,0,0.7,0.3,0.7,0.7v4.3
					C336,370.6,335.7,370.9,335.3,370.9z"/>
				<path fill="#E0E9F8" d="M255.3,325.1h-48.5c-0.4,0-0.7-0.3-0.7-0.7v-4.3c0-0.4,0.3-0.7,0.7-0.7h48.5c0.4,0,0.7,0.3,0.7,0.7v4.3
					C256,324.8,255.7,325.1,255.3,325.1z"/>
				<path fill="#E0E9F8" d="M311.3,325.1h-48.5c-0.4,0-0.7-0.3-0.7-0.7v-4.3c0-0.4,0.3-0.7,0.7-0.7h48.5c0.4,0,0.7,0.3,0.7,0.7v4.3
					C312,324.8,311.7,325.1,311.3,325.1z"/>
				<path fill="#CEDFE7" d="M310.7,356.4H151.5c-0.7,0-1.3-0.6-1.3-1.3v-17.6c0-0.7,0.6-1.3,1.3-1.3h159.2c0.7,0,1.3,0.6,1.3,1.3
					v17.6C312,355.8,311.4,356.4,310.7,356.4z"/>
			</g>
			<path fill="#E0E9F8" d="M397.2,304.1h14.4c0.8,0,1.4-0.6,1.4-1.4l0,0c0-0.8-0.6-1.4-1.4-1.4h-14.4c-0.8,0-1.4,0.6-1.4,1.4l0,0
				C395.7,303.5,396.4,304.1,397.2,304.1z"/>
			<g>
				<circle fill="#7736F6" cx="362.6" cy="315.8" r="4.5"/>
				<path fill="#E0E9F8" d="M408.1,318.6h-35.7c-0.4,0-0.7-0.3-0.7-0.7v-4.3c0-0.4,0.3-0.7,0.7-0.7h35.7c0.4,0,0.7,0.3,0.7,0.7v4.3
					C408.8,318.3,408.5,318.6,408.1,318.6z"/>
				<path fill="#A4B5E9" d="M408.1,331.8h-49.3c-0.4,0-0.7-0.3-0.7-0.7v-4.3c0-0.4,0.3-0.7,0.7-0.7h49.3c0.4,0,0.7,0.3,0.7,0.7v4.3
					C408.8,331.5,408.5,331.8,408.1,331.8z"/>
			</g>
			<g>
				<circle fill="#7736F6" cx="362.6" cy="351.4" r="4.5"/>
				<path fill="#E0E9F8" d="M408.1,354.1h-35.7c-0.4,0-0.7-0.3-0.7-0.7v-4.3c0-0.4,0.3-0.7,0.7-0.7h35.7c0.4,0,0.7,0.3,0.7,0.7v4.3
					C408.8,353.8,408.5,354.1,408.1,354.1z"/>
				<path fill="#A4B5E9" d="M408.1,367.4h-49.3c-0.4,0-0.7-0.3-0.7-0.7v-4.3c0-0.4,0.3-0.7,0.7-0.7h49.3c0.4,0,0.7,0.3,0.7,0.7v4.3
					C408.8,367.1,408.5,367.4,408.1,367.4z"/>
			</g>
			<path fill="#CEDFE7" d="M395.6,173.4l1,2c0.2,0.5,0.7,0.8,1.2,0.9l2.2,0.3c0.4,0.1,0.5,0.5,0.3,0.8l-1.6,1.6
				c-0.4,0.4-0.5,0.9-0.5,1.4l0.4,2.2c0.1,0.4-0.3,0.7-0.7,0.5l-2-1c-0.5-0.2-1-0.2-1.5,0l-2,1c-0.3,0.2-0.8-0.1-0.7-0.5l0.4-2.2
				c0.1-0.5-0.1-1-0.5-1.4l-1.6-1.6c-0.3-0.3-0.1-0.8,0.3-0.8l2.2-0.3c0.5-0.1,1-0.4,1.2-0.9l1-2C394.9,173,395.4,173,395.6,173.4z"
				/>
			<g>
				<path fill="#001D47" d="M383.8,396.3l-2.1,1.8c-0.4,0.3-0.2,1,0.4,1h8.2c1.1,0,2.1-0.9,2.2-2l0.1-1c-2.9,0-5.8,0-8.8,0
					L383.8,396.3z"/>
				<path fill="#001D47" d="M399.1,396l0,0.6l-1.7,1.7c-0.3,0.3-0.1,0.8,0.3,0.8h8.8c1.2,0,2.2-1,2.2-2.3l0-0.8
					C405.5,396,402.3,396,399.1,396z"/>
				<linearGradient id="SVGID_9_" gradientUnits="userSpaceOnUse" x1="396.2649" y1="391.2214" x2="396.2649" y2="348.069">
					<stop  offset="0" style="stop-color:#F577B6"/>
					<stop  offset="1" style="stop-color:#FF8262"/>
				</linearGradient>
				<path fill="url(#SVGID_9_)" d="M406.9,341.3c-7.4,1.2-14.7,1.5-22.1,0.8l-1.1,53.8c2.9,0,5.8,0,8.8,0l3.8-47.5l2.8,47.5
					c3.2,0,6.5,0,9.7,0L406.9,341.3z"/>
				<path fill="#FFBCA8" d="M368.1,284.5c-0.5-1.1-1.8-1.7-3-1.4c-1.5,0.4-2.4,1.9-1.9,3.4l2.4,6.8c2-0.6,4-1.4,5.9-1.5L368.1,284.5
					z"/>
				<path fill="#FFBCA8" d="M392.7,300.3l1.4-6.4c0.6-2.6,3.2-4.1,5.7-3.4l0,0c2.4,0.7,3.8,3.1,3.2,5.5l-1.7,6.4
					c-0.6,2.4-3.1,3.8-5.5,3.1v0C393.5,304.8,392.2,302.6,392.7,300.3z"/>
				<g>
					
						<ellipse transform="matrix(0.2505 -0.9681 0.9681 0.2505 8.8578 603.4636)" fill="none" stroke="#7736F6" stroke-width="0.8" stroke-linecap="round" stroke-linejoin="round" stroke-miterlimit="10" cx="394.2" cy="296" rx="1.4" ry="0.9"/>
					
						<path fill="none" stroke="#7736F6" stroke-width="0.8" stroke-linecap="round" stroke-linejoin="round" stroke-miterlimit="10" d="
						M395,296.2c0,0,2.8,0.3,3.2,0.6c0.4,0.3,0.1,1.1,0.1,1.1"/>
				</g>
				<path fill="#001D47" d="M417.3,329.7c0.1-2.3-0.3-4.6-1.2-6.8l-6.1-13.8c-1.5-3.7-4.9-6.3-8.9-6.9l-13-1.7l-11.7-0.9
					c-0.7-0.1-1.4-0.5-1.7-1.2l-3.2-6.6c-2,0.2-4,0.9-5.9,1.5l3.2,9.2c0.6,1.8,2,3.1,3.8,3.7l12.7,3.8l-0.6,32.2
					c7.4,0.6,14.7,0.3,22.1-0.8l-0.7-21.6l4.5,7.4l0.6,8.9c1.9,0,3.8,0,5.7,0L417.3,329.7z"/>
				<path fill="#FFBCA8" d="M411.3,336l0.6,9.1c0,1.1,0.7,2.1,1.8,2.3c1.3,0.3,2.6-0.6,2.8-2l0.5-9.5C415.1,336,413.2,336,411.3,336
					z"/>
			</g>
			<path fill="#FFBCA8" d="M164.7,152.7c-2.1,1.3-4.3,2.4-6.6,3.3l2.6,5.3l-4.8,10.9c-0.7,1.6,0,3.5,1.7,4.1c1.5,0.6,3.3-0.1,4-1.6
				l4.9-10.7c1.1-2.4,1.1-5.2,0-7.7L164.7,152.7z"/>
			<path fill="#FFBCA8" d="M123.9,154.6l-0.4,3.3c-0.4,2.9,0.6,5.7,2.6,7.7l10.4,10.3c0.9,0.9,2.4,1,3.4,0.3l0,0
				c1.2-0.9,1.4-2.6,0.5-3.8l-9.1-12.1l1.1-4C129.4,156.2,126.6,155.6,123.9,154.6z"/>
			<path fill="#001D47" d="M162,146.7c-2.1-4.6-6.4-7.9-11.5-8.7l-9.4-1.5c-5.9-0.9-11.7,1.9-14.6,7c-1,1.7-1.6,3.6-1.8,5.5
				l-0.7,5.5c2.7,1,5.6,1.6,8.5,1.6l0.2-0.8c0.7-2.6,3-4.5,5.8-4.7l12.2-0.8c2.6-0.2,5.1,1.3,6.2,3.6l1.2,2.5c2.3-0.9,4.6-2,6.6-3.3
				L162,146.7z"/>
			<path fill="#FFBCA8" d="M140.2,149.8l0.6-4.7c0.3-2.5,2.5-4.3,5-4.2h0c2.7,0.2,4.8,2.6,4.5,5.3l-0.5,4.7c-0.3,2.9-3.1,4.9-6,4.1
				l-0.1,0C141.5,154.4,140,152.1,140.2,149.8z"/>
			<g>
				<g>
					<g>
						<linearGradient id="SVGID_10_" gradientUnits="userSpaceOnUse" x1="289.7918" y1="411.1157" x2="207.2637" y2="411.1157">
							<stop  offset="0" style="stop-color:#FFFFFF;stop-opacity:0.3"/>
							<stop  offset="1" style="stop-color:#FFFFFF"/>
						</linearGradient>
						<path fill="url(#SVGID_10_)" d="M242.8,415.2c0.7-0.8,1.5-1.5,2.2-2.3c0.1-0.1,0.3-0.3,0.4-0.4c1.3-2.4,3.6-4.9,5.3-6.8
							c0.8-1,1.7-1.9,2.7-2.7h-37.7c-1.6,0-3.2,0.3-3.5,0.7l-13.3,14.3c-0.7,0.8,0.6,1.4,2.8,1.4h37.7
							C240.4,417.8,241.6,416.4,242.8,415.2z"/>
					</g>
					<g>
						<path fill="#E0E9F8" d="M242.8,415.2c0.7-0.8,1.5-1.5,2.2-2.3c0.1-0.1,0.3-0.3,0.4-0.4c0.4-0.8,1-1.6,1.6-2.4h-31.8
							c-1.1,0-2.3,0.3-2.5,0.6l-3.5,4.5c-0.3,0.4,0.5,0.7,1.8,0.7h31.2C242.3,415.6,242.6,415.4,242.8,415.2z"/>
						<g>
							<path fill="#A4B5E9" d="M226.4,406.9c-0.4,0.8-3.2,1.4-6.2,1.4c-3,0-4.9-0.7-4.3-1.4c0.6-0.8,3.3-1.3,6.1-1.3
								C224.9,405.6,226.8,406.2,226.4,406.9z"/>
							<path fill="#E0E9F8" d="M250.3,406.1h-17.3c-0.4,0-0.8,0.1-0.8,0.2l-0.5,1.3c0,0.1,0.3,0.2,0.7,0.2h16.5
								C249.3,407.2,249.8,406.6,250.3,406.1z"/>
						</g>
					</g>
				</g>
				<g>
					<g>
						<linearGradient id="SVGID_11_" gradientUnits="userSpaceOnUse" x1="326.9773" y1="411.1158" x2="244.449" y2="411.1158">
							<stop  offset="0" style="stop-color:#FFFFFF;stop-opacity:0.3"/>
							<stop  offset="1" style="stop-color:#FFFFFF"/>
						</linearGradient>
						<path fill="url(#SVGID_11_)" d="M332.3,419.3h-93.4c-2.3,0-3.5-0.6-2.8-1.4l13.3-14.3c0.4-0.4,1.9-0.7,3.5-0.7h65.5
							c1.6,0,3.2,0.3,3.5,0.7l13.3,14.3C335.8,418.7,334.5,419.3,332.3,419.3z"/>
					</g>
					<g>
						<path fill="#E0E9F8" d="M323,415.9h-74.9c-1.3,0-2.1-0.3-1.8-0.7l3.5-4.5c0.3-0.3,1.4-0.6,2.5-0.6h66.4c1.1,0,2.3,0.3,2.5,0.6
							l3.5,4.5C325.1,415.6,324.3,415.9,323,415.9z"/>
						<g>
							<g>
								<g>
									<path fill="#C2C9E9" d="M306.8,404.2c0.7,0,1.4,0.1,1.5,0.3c0.1,0.2-0.4,0.3-1.1,0.3s-1.4-0.1-1.5-0.3
										C305.6,404.4,306.1,404.2,306.8,404.2z"/>
								</g>
								<g>
									<path fill="#C2C9E9" d="M311.5,404.2c0.7,0,1.4,0.1,1.5,0.3c0.1,0.2-0.4,0.3-1.1,0.3c-0.7,0-1.4-0.1-1.5-0.3
										C310.3,404.4,310.8,404.2,311.5,404.2z"/>
								</g>
								<g>
									<path fill="#C2C9E9" d="M316.3,404.2c0.7,0,1.4,0.1,1.6,0.3c0.1,0.2-0.3,0.3-1.1,0.3c-0.7,0-1.4-0.1-1.6-0.3
										C315.1,404.4,315.5,404.2,316.3,404.2z"/>
								</g>
							</g>
						</g>
						<g>
							<path fill="#A4B5E9" d="M263.6,406.9c-0.4,0.8-3.2,1.4-6.2,1.4c-3,0-4.9-0.7-4.3-1.4c0.6-0.8,3.3-1.3,6.1-1.3
								C262.1,405.6,264,406.2,263.6,406.9z"/>
							<path fill="#E0E9F8" d="M317.8,407.8h-48.4c-0.4,0-0.8-0.1-0.7-0.2l0.5-1.3c0-0.1,0.4-0.2,0.8-0.2h46.4
								c0.4,0,0.8,0.1,0.9,0.2l1,1.3C318.5,407.7,318.3,407.8,317.8,407.8z"/>
						</g>
					</g>
				</g>
				<g>
					<g>
						<path fill="#FFFFFF" d="M377.4,419.3h-93.4c-2.3,0-3.5-0.6-2.8-1.4l13.3-14.3c0.4-0.4,1.9-0.7,3.5-0.7h65.5
							c1.6,0,3.2,0.3,3.5,0.7l13.3,14.3C380.9,418.7,379.6,419.3,377.4,419.3z"/>
					</g>
					<g>
						<path fill="#E0E9F8" d="M368.1,415.9h-74.9c-1.3,0-2.1-0.3-1.8-0.7l3.5-4.5c0.3-0.3,1.4-0.6,2.5-0.6h66.4
							c1.1,0,2.3,0.3,2.5,0.6l3.5,4.5C370.1,415.6,369.4,415.9,368.1,415.9z"/>
						<g>
							<g>
								<g>
									<path fill="#C2C9E9" d="M351.9,404.2c0.7,0,1.4,0.1,1.5,0.3c0.1,0.2-0.4,0.3-1.1,0.3c-0.7,0-1.4-0.1-1.5-0.3
										C350.6,404.4,351.2,404.2,351.9,404.2z"/>
								</g>
								<g>
									<path fill="#C2C9E9" d="M356.6,404.2c0.7,0,1.4,0.1,1.5,0.3c0.1,0.2-0.4,0.3-1.1,0.3c-0.7,0-1.4-0.1-1.5-0.3
										C355.4,404.4,355.9,404.2,356.6,404.2z"/>
								</g>
								<g>
									<path fill="#C2C9E9" d="M361.3,404.2c0.7,0,1.4,0.1,1.6,0.3c0.1,0.2-0.3,0.3-1.1,0.3c-0.7,0-1.4-0.1-1.6-0.3
										C360.2,404.4,360.6,404.2,361.3,404.2z"/>
								</g>
							</g>
						</g>
						<g>
							<path fill="#A4B5E9" d="M308.7,406.9c-0.4,0.8-3.2,1.4-6.2,1.4c-3,0-4.9-0.7-4.3-1.4c0.6-0.8,3.3-1.3,6.1-1.3
								S309.1,406.2,308.7,406.9z"/>
							<path fill="#E0E9F8" d="M362.9,407.8h-48.4c-0.4,0-0.8-0.1-0.7-0.2l0.5-1.3c0-0.1,0.4-0.2,0.8-0.2h46.4
								c0.4,0,0.8,0.1,0.9,0.2l1,1.3C363.6,407.7,363.3,407.8,362.9,407.8z"/>
						</g>
					</g>
				</g>
			</g>
			<g>
				<g>
					<linearGradient id="SVGID_12_" gradientUnits="userSpaceOnUse" x1="205.0613" y1="139.0003" x2="205.0613" y2="122.6253">
						<stop  offset="0" style="stop-color:#FFFFFF;stop-opacity:0.3"/>
						<stop  offset="1" style="stop-color:#FFFFFF"/>
					</linearGradient>
					<path fill="url(#SVGID_12_)" d="M243.3,139h-76.4c-2.2,0-4-1.8-4-4v-8.4c0-2.2,1.8-4,4-4h76.4c2.2,0,4,1.8,4,4v8.4
						C247.3,137.2,245.5,139,243.3,139z"/>
					<path fill="#E0E9F8" d="M174.8,133.6c0.7-0.8,1.2-1.9,1.2-3.1c0-2.6-2.1-4.8-4.8-4.8c-2.6,0-4.8,2.1-4.8,4.8
						c0,2.6,2.1,4.8,4.8,4.8c0.9,0,1.7-0.3,2.4-0.7l0.9,1.1c0.1,0.2,0.4,0.3,0.6,0.3c0.2,0,0.3-0.1,0.5-0.2c0.3-0.3,0.3-0.7,0.1-1.1
						L174.8,133.6z M168,130.5c0-1.8,1.5-3.3,3.3-3.3c1.8,0,3.3,1.5,3.3,3.3c0,1.8-1.5,3.3-3.3,3.3C169.4,133.8,168,132.3,168,130.5
						z"/>
					<path fill="#E0E9F8" d="M233.5,133.6H185c-0.4,0-0.7-0.3-0.7-0.7v-4.3c0-0.4,0.3-0.7,0.7-0.7h48.5c0.4,0,0.7,0.3,0.7,0.7v4.3
						C234.1,133.3,233.8,133.6,233.5,133.6z"/>
				</g>
				<g>
					<linearGradient id="SVGID_13_" gradientUnits="userSpaceOnUse" x1="190.4884" y1="124.9912" x2="190.4884" y2="108.6162">
						<stop  offset="0" style="stop-color:#FFFFFF;stop-opacity:0.3"/>
						<stop  offset="1" style="stop-color:#FFFFFF"/>
					</linearGradient>
					<path fill="url(#SVGID_13_)" d="M228.7,125h-76.4c-2.2,0-4-1.8-4-4v-8.4c0-2.2,1.8-4,4-4h76.4c2.2,0,4,1.8,4,4v8.4
						C232.7,123.2,230.9,125,228.7,125z"/>
					<path fill="#E0E9F8" d="M160.2,119.6c0.7-0.8,1.2-1.9,1.2-3.1c0-2.6-2.1-4.8-4.8-4.8c-2.6,0-4.8,2.1-4.8,4.8
						c0,2.6,2.1,4.8,4.8,4.8c0.9,0,1.7-0.3,2.4-0.7l0.9,1.1c0.1,0.2,0.4,0.3,0.6,0.3c0.2,0,0.3-0.1,0.5-0.2c0.3-0.3,0.3-0.7,0.1-1.1
						L160.2,119.6z M153.4,116.5c0-1.8,1.5-3.3,3.3-3.3c1.8,0,3.3,1.5,3.3,3.3c0,1.8-1.5,3.3-3.3,3.3
						C154.9,119.8,153.4,118.3,153.4,116.5z"/>
					<path fill="#E0E9F8" d="M218.9,119.6h-48.5c-0.4,0-0.7-0.3-0.7-0.7v-4.3c0-0.4,0.3-0.7,0.7-0.7h48.5c0.4,0,0.7,0.3,0.7,0.7v4.3
						C219.6,119.3,219.3,119.6,218.9,119.6z"/>
				</g>
				<g>
					<path fill="#FFFFFF" d="M256.3,153.2h-76.4c-2.2,0-4-1.8-4-4v-8.4c0-2.2,1.8-4,4-4h76.4c2.2,0,4,1.8,4,4v8.4
						C260.3,151.4,258.5,153.2,256.3,153.2z"/>
					<g>
						<g>
							<path fill="#E0E9F8" d="M184.3,149.5c-2.6,0-4.8-2.1-4.8-4.8c0-2.6,2.1-4.8,4.8-4.8c2.6,0,4.8,2.1,4.8,4.8
								C189,147.3,186.9,149.5,184.3,149.5z M184.3,141.4c-1.8,0-3.3,1.5-3.3,3.3c0,1.8,1.5,3.3,3.3,3.3c1.8,0,3.3-1.5,3.3-3.3
								C187.5,142.9,186.1,141.4,184.3,141.4z"/>
							<path fill="#E0E9F8" d="M188.2,150.1c-0.2,0-0.4-0.1-0.6-0.3l-1.3-1.6c-0.3-0.3-0.2-0.8,0.1-1.1c0.3-0.3,0.8-0.2,1.1,0.1
								l1.3,1.6c0.3,0.3,0.2,0.8-0.1,1.1C188.5,150,188.3,150.1,188.2,150.1z"/>
						</g>
					</g>
					<path fill="#E0E9F8" d="M246.5,147.8H198c-0.4,0-0.7-0.3-0.7-0.7v-4.3c0-0.4,0.3-0.7,0.7-0.7h48.5c0.4,0,0.7,0.3,0.7,0.7v4.3
						C247.1,147.5,246.8,147.8,246.5,147.8z"/>
				</g>
			</g>
			<g>
				<circle fill="#CFE4E9" cx="111.6" cy="413" r="5.6"/>
				<circle opacity="0.6" fill="#CFE4E9" cx="128.1" cy="413" r="5.6"/>
				<circle opacity="0.35" fill="#CFE4E9" cx="144.6" cy="413" r="5.6"/>
			</g>
			<g>
				<path fill="#CEDFE7" d="M425.9,225.5l-0.1-3.4l17.2-6.6v3.5c0,2.6-0.2,5.1-0.6,7.7C436.9,227.5,431.3,227,425.9,225.5z"/>
				<path fill="#FFFFFF" d="M429.9,213.1L429.9,213.1l-0.1-21.9l7.7,1.3c4,0.7,7.3,3.6,8.4,7.5l2.1,10.7c0.8,2.7-0.7,5.6-3.3,6.5
					l-9.3,4.7C432.6,219.7,430.8,216.4,429.9,213.1z"/>
				<path fill="#FFBCA8" d="M420.3,220.7l9.5-7.6c0.9,3.3,2.7,6.6,5.5,8.7l-12.2,6.2c-2.1,0.7-4.5-0.5-5-2.7
					C417.7,223.4,418.6,221.5,420.3,220.7z"/>
				<path fill="#FFBCA8" d="M437,195.5l-0.6-4.8c-0.3-2.6-2.6-4.5-5.2-4.3l0,0c-2.8,0.2-4.9,2.6-4.6,5.4l0.5,4.8
					c0.3,3,3.2,5,6.1,4.3l0.1,0C435.7,200.3,437.3,198,437,195.5z"/>
				<path fill="#042A37" d="M436.9,194.8c0,0-2.3-1.3-2.5-4.4c0,0-4.9,1.9-7.8,0.7c-2.9-1.2-2.4-4.7-0.4-5.6
					c2.4-1.2,3.6,0.9,3.6,0.9s3.1-1,5.6,1.3C437.9,190.1,436.9,194.8,436.9,194.8z"/>
				<path fill="#CEDFE7" d="M429.9,213.1l7.5-5.3c0.5-0.3,0.1-1.1-0.5-0.9l-7.1,2.1L429.9,213.1z"/>
			</g>
			<g>
				<g>
					<path fill="#FF9272" d="M52.3,368.4c0.5-1.2,0.6-2.6,0.2-3.9L48,350.6c0,0-2.7-7.9-2.7-9c0,0,18.9,4.4,19,5.8l0.6,8.6
						c0.3,4.6-1.2,10.5-3.7,15.6l-9.7,21.1c-0.1,0.2-0.1,0.4,0,0.5c-3.4,0-6.5,0-9.9,0L52.3,368.4z"/>
					<path fill="#001D47" d="M41.5,393.3c3.4,0,6.5,0,9.9,0c0,0.1,0.1,0.2,0.1,0.3l2.1,2.5c0.6,0.7-0.5,2-1.6,2l-10.4,0.1
						c-1.3,0-1.9-1-1.4-2.2L41.5,393.3z"/>
					<path fill="#FFBCA8" d="M63.5,301.6l1.5-4.7c0.7-2.1,2.9-3.4,5.1-2.8l0.5,0.1c2.4,0.6,3.7,3.1,3,5.4l-1.5,4.9
						c-0.8,2.5-3.6,3.7-5.9,2.6l-0.6-0.3C63.8,305.9,62.8,303.7,63.5,301.6z"/>
					<path fill="#FFBCA8" d="M73.7,307.8c1.1,1.1,2,2.4,2.9,3.7l4.5,6.8c0,0,9.9-10.6,11.7-10.9c1.8-0.3,4.4,2,3.6,3.9
						c-0.6,1.5-6,9.3-12.3,15.6c-1.6,1.6-4,1.8-5.8,0.5l-7.5-9.2l-1.1,1.8C68.9,315.4,70.1,310,73.7,307.8z"/>
					<path fill="#001D47" d="M74.4,393.3l3.3,2.5c0.8,0.7,0.4,2-0.7,2L66.6,398c-1.3,0-2.3-1-2.4-2.2l0.1-2.5
						C67.7,393.3,71.1,393.3,74.4,393.3C74.4,393.3,74.4,393.3,74.4,393.3z"/>
					<path fill="#FFBCA8" d="M63.7,366.3l-11.3-14.7c4.6-1.1,9.3-2.4,13.8-4.1c2.2,4,4.8,8.5,4.8,8.5c2.4,4.5,3.5,10.4,3.3,15.5
						l-0.2,21c0,0.3,0.2,0.6,0.4,0.8c-3.2,0-6.7,0-10.1,0l0.5-23.4C64.8,368.6,64.4,367.3,63.7,366.3z"/>
					<path fill="#7736F6" d="M64.5,302.7c0.6,0,3,0.5,4.9,1.6c1.6,0.9,3,2.1,4.3,3.5c-3.6,2.2-4.8,7.5-4,12.2l-0.7,1
						c-1.8,2.8-3.2,5.8-4.2,8.9c-5.1-0.4-9.8-2.2-14-5C54.3,315.7,56.5,303.3,64.5,302.7z"/>
					<path fill="#4836F6" d="M44.7,333.7c1.9-4.3,5.2-6.4,5.2-6.4c0.3-0.7,0.6-1.5,0.9-2.3c4.2,2.8,8.9,4.6,14,5
						c-1.1,3.5-1.6,7.1-1.5,10.8c0,0.4,0,0.6,0,0.6c0,0.6,1.3,3.2,2.9,6.1c-4.5,1.7-9.1,3-13.8,4.1l-0.8-1.1l-4.8-5.9
						C44,341.4,43,337.5,44.7,333.7z"/>
					<path fill="#7736F6" d="M70.2,354.6c0,0-9.9,9.4-28.8,7.2c0,0,4.3-11.2,2.5-21.6c-1.5-8.1,6-13,6-13s4.8,4.8,14,6.2
						c0,0-1.1,6.1,2.5,11.6C68.7,348.5,70.2,354.6,70.2,354.6z"/>
					<path fill="#001D47" d="M71.6,299.1c0,0,2.5,2.2,3.5,0.4c1-1.7-0.1-6-4.9-6.5c-4.5-0.5-6.3,3-8.2,6.1
						c-3.1,5.2-13.7,8.4-13.4,15.4c0.5,10.7,13.4,9.5,15.5,2.9c1.6-5.1-0.7-11.1,1.4-13C67.7,302.6,69.9,304.3,71.6,299.1z"/>
				</g>
			</g>
		</g>
	</g>
	<path fill="#3427F6" d="M140.5,147.3c0,0-2.6-5.4-0.3-7.4c2.3-2,3.4,0,6.9-2.4c5.4-3.8,13.4,4.3,3.3,8.7c0,0-4.3,1.5-6.8-1.5
		C143.5,144.7,143,146.8,140.5,147.3z"/>
</g>
<g id="DESIGNED_BY_FREEPIK">
</g>
</svg>
